{"glyphs":{"0":{"ha":264,"x_min":21,"x_max":243,"o":"m 243 103 q 214 22 243 51 q 133 -8 185 -8 q 51 22 82 -8 q 21 103 21 51 l 21 869 q 51 951 21 921 q 133 981 82 981 q 214 951 185 981 q 243 869 243 921 l 243 103 m 160 858 q 132 903 160 903 q 104 858 104 903 l 104 114 q 132 69 104 69 q 160 114 160 69 l 160 858 z "},"1":{"ha":208,"x_min":21,"x_max":188,"o":"m 146 78 l 188 78 l 188 0 l 21 0 l 21 78 l 63 78 l 63 831 l 21 831 l 21 894 q 66 910 56 894 q 76 972 76 926 l 146 972 l 146 78 z "},"2":{"ha":265,"x_min":22,"x_max":244,"o":"m 22 86 q 30 205 22 153 q 50 298 38 257 q 78 372 63 339 q 107 433 93 404 q 145 519 129 478 q 161 615 161 560 l 161 856 q 155 893 161 883 q 135 903 149 903 q 106 858 106 903 l 106 604 l 22 604 l 22 869 q 51 951 22 921 q 131 981 81 981 q 214 947 183 981 q 244 854 244 913 l 244 613 q 227 500 244 546 q 186 410 210 454 q 158 351 172 382 q 133 283 144 321 q 114 197 121 244 q 107 86 107 149 l 107 75 l 244 75 l 244 0 l 22 0 l 22 86 z "},"3":{"ha":264,"x_min":21,"x_max":243,"o":"m 104 646 l 21 646 l 21 869 q 50 951 21 921 q 131 981 79 981 q 213 951 182 981 q 243 869 243 921 l 243 607 q 234 551 243 569 q 197 522 225 533 l 197 519 q 234 490 225 508 q 243 435 243 472 l 243 103 q 213 22 243 51 q 131 -8 182 -8 q 50 22 79 -8 q 21 103 21 51 l 21 354 l 104 354 l 104 114 q 132 69 104 69 q 160 114 160 69 l 160 442 q 132 482 160 482 l 104 482 l 104 560 l 132 560 q 160 600 160 560 l 160 858 q 132 903 160 903 q 104 858 104 903 l 104 646 z "},"4":{"ha":289,"x_min":21,"x_max":268,"o":"m 157 143 l 21 143 l 21 221 l 115 972 l 240 972 l 240 221 l 268 221 l 268 143 l 240 143 l 240 0 l 157 0 l 157 143 m 157 221 l 168 875 l 165 875 l 103 221 l 157 221 z "},"5":{"ha":264,"x_min":21,"x_max":243,"o":"m 104 507 l 21 507 l 21 972 l 235 972 l 235 894 l 104 894 l 104 611 l 107 610 q 167 651 126 651 q 223 621 203 651 q 243 540 243 590 l 243 103 q 213 22 243 51 q 131 -8 182 -8 q 50 22 79 -8 q 21 103 21 51 l 21 397 l 104 397 l 104 114 q 132 69 104 69 q 160 114 160 69 l 160 529 q 132 574 160 574 q 104 529 104 574 l 104 507 z "},"6":{"ha":264,"x_min":21,"x_max":243,"o":"m 107 569 q 167 611 126 611 q 223 581 203 611 q 243 500 243 550 l 243 103 q 213 22 243 51 q 131 -8 182 -8 q 50 22 79 -8 q 21 103 21 51 l 21 869 q 51 951 21 921 q 133 981 82 981 q 214 951 185 981 q 243 869 243 921 l 243 674 l 160 674 l 160 858 q 132 903 160 903 q 104 858 104 903 l 104 571 l 107 569 m 104 114 q 132 69 104 69 q 160 114 160 69 l 160 489 q 132 533 160 533 q 104 489 104 533 l 104 114 z "},"7":{"ha":257,"x_min":21,"x_max":236,"o":"m 236 894 l 132 0 l 49 0 l 151 892 l 149 894 l 21 894 l 21 972 l 236 972 l 236 894 z "},"8":{"ha":264,"x_min":21,"x_max":243,"o":"m 131 981 q 213 951 183 981 q 243 869 243 921 l 243 607 q 234 551 243 569 q 197 522 225 533 l 197 519 q 234 490 225 508 q 243 435 243 472 l 243 103 q 214 22 243 51 q 133 -8 185 -8 q 51 22 81 -8 q 21 103 21 51 l 21 435 q 30 490 21 472 q 67 519 39 508 l 67 522 q 30 551 39 533 q 21 607 21 569 l 21 869 q 50 951 21 921 q 131 981 79 981 m 104 600 q 132 560 104 560 q 160 600 160 560 l 160 858 q 132 903 160 903 q 104 858 104 903 l 104 600 m 132 69 q 160 114 160 69 l 160 442 q 132 482 160 482 q 104 442 104 482 l 104 114 q 132 69 104 69 z "},"9":{"ha":264,"x_min":21,"x_max":243,"o":"m 132 981 q 214 951 185 981 q 243 869 243 921 l 243 103 q 213 22 243 51 q 131 -8 182 -8 q 50 22 79 -8 q 21 103 21 51 l 21 340 l 104 340 l 104 114 q 132 69 104 69 q 160 114 160 69 l 160 443 l 157 444 q 97 403 139 403 q 41 433 61 403 q 21 514 21 464 l 21 869 q 50 951 21 921 q 132 981 79 981 m 160 858 q 132 903 160 903 q 104 858 104 903 l 104 525 q 132 481 104 481 q 160 525 160 481 l 160 858 z "},"\u0000":{"ha":0,"x_min":0,"x_max":0,"o":""},"\r":{"ha":347,"x_min":0,"x_max":0,"o":""}," ":{"ha":111,"x_min":0,"x_max":0,"o":""},"O":{"ha":264,"x_min":21,"x_max":243,"o":"m 243 103 q 214 22 243 51 q 133 -8 185 -8 q 51 22 82 -8 q 21 103 21 51 l 21 869 q 51 951 21 921 q 133 981 82 981 q 214 951 185 981 q 243 869 243 921 l 243 103 m 160 858 q 132 903 160 903 q 104 858 104 903 l 104 114 q 132 69 104 69 q 160 114 160 69 l 160 858 z "},";":{"ha":140,"x_min":22,"x_max":106,"o":"m 22 681 l 106 681 l 106 556 l 22 556 l 22 681 m 22 125 l 106 125 l 106 0 l 83 -103 l 42 -103 l 64 0 l 22 0 l 22 125 z "},"E":{"ha":176,"x_min":21,"x_max":167,"o":"m 160 894 l 104 894 l 104 538 l 153 538 l 153 460 l 104 460 l 104 78 l 167 78 l 167 0 l 21 0 l 21 972 l 160 972 l 160 894 z "},"I":{"ha":125,"x_min":21,"x_max":104,"o":"m 104 0 l 21 0 l 21 972 l 104 972 l 104 0 z "},"H":{"ha":264,"x_min":21,"x_max":243,"o":"m 243 0 l 160 0 l 160 446 l 104 446 l 104 0 l 21 0 l 21 972 l 104 972 l 104 524 l 160 524 l 160 972 l 243 972 l 243 0 z "},"L":{"ha":174,"x_min":21,"x_max":164,"o":"m 104 972 l 104 78 l 164 78 l 164 0 l 21 0 l 21 972 l 104 972 z "},"F":{"ha":169,"x_min":21,"x_max":160,"o":"m 160 894 l 104 894 l 104 524 l 153 524 l 153 446 l 104 446 l 104 0 l 21 0 l 21 972 l 160 972 l 160 894 z "},"T":{"ha":242,"x_min":10,"x_max":232,"o":"m 232 894 l 163 894 l 163 0 l 79 0 l 79 894 l 10 894 l 10 972 l 232 972 l 232 894 z "},"S":{"ha":257,"x_min":18,"x_max":240,"o":"m 240 103 q 210 22 240 51 q 128 -8 179 -8 q 47 22 76 -8 q 18 103 18 51 l 18 342 l 101 342 l 101 114 q 129 69 101 69 q 157 114 157 69 l 157 299 q 137 403 157 360 q 92 490 117 447 q 41 589 64 536 q 18 718 18 642 l 18 869 q 49 951 18 921 q 131 981 79 981 q 211 951 182 981 q 240 869 240 921 l 240 674 l 157 674 l 157 858 q 129 903 157 903 q 101 858 101 903 l 101 718 q 122 613 101 657 q 167 525 142 568 q 217 426 194 479 q 240 299 240 374 l 240 103 z "},"C":{"ha":264,"x_min":21,"x_max":243,"o":"m 160 858 q 132 903 160 903 q 104 858 104 903 l 104 114 q 132 69 104 69 q 160 114 160 69 l 160 411 l 243 411 l 243 103 q 214 22 243 51 q 133 -8 185 -8 q 51 22 82 -8 q 21 103 21 51 l 21 869 q 51 951 21 921 q 133 981 82 981 q 214 951 185 981 q 243 869 243 921 l 243 604 l 160 604 l 160 858 z "},"G":{"ha":264,"x_min":21,"x_max":243,"o":"m 243 513 l 243 0 l 160 0 l 160 56 l 157 56 q 94 -8 142 -8 q 41 22 61 -8 q 21 103 21 51 l 21 869 q 51 951 21 921 q 133 981 82 981 q 214 951 185 981 q 243 869 243 921 l 243 604 l 160 604 l 160 858 q 132 903 160 903 q 104 858 104 903 l 104 114 q 132 69 104 69 q 160 119 160 69 l 160 435 l 132 435 l 132 513 l 243 513 z "},"U":{"ha":264,"x_min":21,"x_max":243,"o":"m 243 103 q 214 22 243 51 q 133 -8 185 -8 q 51 22 82 -8 q 21 103 21 51 l 21 972 l 104 972 l 104 114 q 132 69 104 69 q 160 114 160 69 l 160 972 l 243 972 l 243 103 z "},"J":{"ha":264,"x_min":21,"x_max":243,"o":"m 243 103 q 214 22 243 51 q 133 -8 185 -8 q 51 22 82 -8 q 21 103 21 51 l 21 411 l 104 411 l 104 114 q 132 69 104 69 q 160 114 160 69 l 160 972 l 243 972 l 243 103 z "},"D":{"ha":264,"x_min":21,"x_max":243,"o":"m 243 111 q 219 30 243 60 q 133 0 196 0 l 21 0 l 21 972 l 133 972 q 219 942 196 972 q 243 861 243 913 l 243 111 m 160 854 q 153 886 160 878 q 132 894 147 894 l 104 894 l 104 78 l 132 78 q 153 86 147 78 q 160 118 160 94 l 160 854 z "},"B":{"ha":260,"x_min":21,"x_max":243,"o":"m 243 607 q 234 551 243 569 q 197 522 225 533 l 197 519 q 234 490 225 508 q 243 435 243 472 l 243 111 q 133 0 243 0 l 21 0 l 21 972 l 133 972 q 243 861 243 972 l 243 607 m 160 854 q 132 894 160 894 l 104 894 l 104 560 l 132 560 q 153 568 147 560 q 160 600 160 576 l 160 854 m 160 442 q 153 474 160 465 q 132 482 147 482 l 104 482 l 104 78 l 132 78 q 160 118 160 78 l 160 442 z "},"R":{"ha":264,"x_min":21,"x_max":257,"o":"m 160 414 q 153 446 160 438 q 132 454 147 454 l 104 454 l 104 0 l 21 0 l 21 972 l 133 972 q 243 861 243 972 l 243 579 q 234 524 243 542 q 197 494 225 506 l 197 492 q 234 463 225 481 q 243 407 243 444 l 243 125 q 244 65 243 94 q 257 3 246 35 l 257 0 l 174 0 q 160 126 160 61 l 160 414 m 160 854 q 153 886 160 878 q 132 894 147 894 l 104 894 l 104 532 l 132 532 q 160 572 160 532 l 160 854 z "},"P":{"ha":264,"x_min":21,"x_max":243,"o":"m 243 538 q 219 456 243 486 q 133 426 196 426 l 104 426 l 104 0 l 21 0 l 21 972 l 133 972 q 219 942 196 972 q 243 861 243 913 l 243 538 m 160 854 q 153 886 160 878 q 132 894 147 894 l 104 894 l 104 504 l 132 504 q 153 513 147 504 q 160 544 160 521 l 160 854 z "},"Q":{"ha":264,"x_min":21,"x_max":243,"o":"m 243 103 q 222 32 243 60 q 165 -4 201 4 l 165 -26 q 167 -42 165 -37 q 181 -47 169 -47 l 215 -47 l 215 -108 l 157 -108 q 112 -89 125 -108 q 99 -35 99 -69 l 99 -4 q 42 33 63 6 q 21 103 21 61 l 21 869 q 51 951 21 921 q 133 981 82 981 q 214 951 185 981 q 243 869 243 921 l 243 103 m 160 858 q 132 903 160 903 q 104 858 104 903 l 104 114 q 132 69 104 69 q 160 114 160 69 l 160 858 z "},"A":{"ha":246,"x_min":0,"x_max":246,"o":"m 246 0 l 158 0 l 144 256 l 92 256 l 78 0 l 0 0 l 63 972 l 174 972 l 246 0 m 140 333 l 126 610 l 119 849 l 117 849 l 111 610 l 96 333 l 140 333 z "},"V":{"ha":246,"x_min":0,"x_max":246,"o":"m 183 0 l 72 0 l 0 972 l 88 972 l 119 363 l 126 124 l 129 124 l 136 363 l 168 972 l 246 972 l 183 0 z "},"W":{"ha":403,"x_min":0,"x_max":403,"o":"m 342 0 l 231 0 l 207 665 l 203 819 l 200 819 l 196 665 l 172 0 l 61 0 l 0 972 l 88 972 l 110 363 l 115 124 l 118 124 l 125 363 l 146 972 l 257 972 l 279 363 l 285 124 l 288 124 l 294 364 l 315 972 l 403 972 l 342 0 z "},"K":{"ha":253,"x_min":21,"x_max":253,"o":"m 182 528 l 182 525 l 253 0 l 171 0 l 107 468 l 104 468 l 104 0 l 21 0 l 21 972 l 104 972 l 104 558 l 107 558 l 169 972 l 253 972 l 182 528 z "},"X":{"ha":250,"x_min":0,"x_max":250,"o":"m 186 500 l 186 497 l 250 0 l 164 0 l 136 276 l 128 415 l 125 415 l 117 276 l 86 0 l 0 0 l 64 497 l 64 500 l 4 972 l 90 972 l 115 721 l 124 582 l 126 582 l 135 721 l 160 972 l 246 972 l 186 500 z "},"Y":{"ha":242,"x_min":0,"x_max":242,"o":"m 163 319 l 163 0 l 79 0 l 79 319 l 0 972 l 86 972 l 114 638 l 119 499 l 122 499 l 128 638 l 156 972 l 242 972 l 163 319 z "},"M":{"ha":406,"x_min":21,"x_max":385,"o":"m 385 0 l 307 0 l 307 625 l 310 833 l 307 833 l 296 625 l 251 0 l 154 0 l 110 625 l 99 835 l 96 835 l 99 625 l 99 0 l 21 0 l 21 972 l 156 972 l 194 406 l 201 193 l 204 193 l 211 404 l 250 972 l 385 972 l 385 0 z "},"N":{"ha":314,"x_min":21,"x_max":293,"o":"m 293 0 l 179 0 l 85 813 l 82 813 l 94 479 l 99 0 l 21 0 l 21 972 l 135 972 l 229 164 l 232 164 l 219 482 l 215 972 l 293 972 l 293 0 z "},"Z":{"ha":219,"x_min":10,"x_max":210,"o":"m 210 894 l 94 78 l 208 78 l 208 0 l 10 0 l 10 78 l 125 894 l 17 894 l 17 972 l 210 972 l 210 894 z "},".":{"ha":125,"x_min":21,"x_max":104,"o":"m 21 125 l 104 125 l 104 0 l 21 0 l 21 125 z "},"o":{"ha":253,"x_min":21,"x_max":232,"o":"m 232 103 q 204 22 232 51 q 128 -8 176 -8 q 50 22 79 -8 q 21 103 21 51 l 21 689 q 50 770 21 740 q 128 800 79 800 q 204 770 176 800 q 232 689 232 740 l 232 103 m 154 683 q 126 728 154 728 q 99 683 99 728 l 99 108 q 126 64 99 64 q 154 108 154 64 l 154 683 z "},"l":{"ha":119,"x_min":21,"x_max":99,"o":"m 21 1014 l 99 1014 l 99 0 l 21 0 l 21 1014 z "},"b":{"ha":253,"x_min":21,"x_max":232,"o":"m 21 1014 l 99 1014 l 99 746 l 101 746 q 163 800 117 800 q 213 770 194 800 q 232 689 232 740 l 232 103 q 213 22 232 51 q 163 -8 194 -8 q 101 46 117 -8 l 99 46 l 99 0 l 21 0 l 21 1014 m 154 683 q 126 728 154 728 q 99 683 99 728 l 99 108 q 126 64 99 64 q 154 108 154 64 l 154 683 z "},"d":{"ha":253,"x_min":21,"x_max":232,"o":"m 154 0 l 154 46 l 151 46 q 90 -8 136 -8 q 40 22 58 -8 q 21 103 21 51 l 21 689 q 40 770 21 740 q 90 800 58 800 q 151 746 136 800 l 154 746 l 154 1014 l 232 1014 l 232 0 l 154 0 m 99 108 q 126 64 99 64 q 154 108 154 64 l 154 683 q 126 728 154 728 q 99 683 99 728 l 99 108 z "},"q":{"ha":253,"x_min":21,"x_max":232,"o":"m 232 -222 l 154 -222 l 154 46 l 151 46 q 90 -8 136 -8 q 40 22 58 -8 q 21 103 21 51 l 21 689 q 40 770 21 740 q 90 800 58 800 q 151 746 136 800 l 154 746 l 154 792 l 232 792 l 232 -222 m 99 108 q 126 64 99 64 q 154 108 154 64 l 154 683 q 126 728 154 728 q 99 683 99 728 l 99 108 z "},"p":{"ha":253,"x_min":21,"x_max":232,"o":"m 99 792 l 99 746 l 101 746 q 163 800 117 800 q 213 770 194 800 q 232 689 232 740 l 232 103 q 213 22 232 51 q 163 -8 194 -8 q 101 46 117 -8 l 99 46 l 99 -222 l 21 -222 l 21 792 l 99 792 m 154 683 q 126 728 154 728 q 99 683 99 728 l 99 108 q 126 64 99 64 q 154 108 154 64 l 154 683 z "},"c":{"ha":253,"x_min":21,"x_max":232,"o":"m 154 683 q 126 728 154 728 q 99 683 99 728 l 99 108 q 126 64 99 64 q 154 108 154 64 l 154 338 l 232 338 l 232 103 q 204 22 232 51 q 128 -8 176 -8 q 50 22 79 -8 q 21 103 21 51 l 21 689 q 50 770 21 740 q 128 800 79 800 q 204 770 176 800 q 232 689 232 740 l 232 490 l 154 490 l 154 683 z "},"s":{"ha":244,"x_min":17,"x_max":228,"o":"m 228 103 q 199 22 228 51 q 121 -8 169 -8 q 44 22 72 -8 q 17 103 17 51 l 17 279 l 94 279 l 94 108 q 122 64 94 64 q 150 108 150 64 l 150 261 q 131 333 150 301 q 89 397 113 365 q 40 474 63 433 q 17 569 17 514 l 17 689 q 46 770 17 740 q 124 800 75 800 q 200 770 172 800 q 228 689 228 740 l 228 550 l 150 550 l 150 683 q 122 728 150 728 q 94 683 94 728 l 94 569 q 113 497 94 529 q 156 433 132 465 q 205 356 182 397 q 228 261 228 314 l 228 103 z "},"e":{"ha":253,"x_min":21,"x_max":232,"o":"m 232 310 l 232 103 q 204 22 232 51 q 128 -8 176 -8 q 50 22 79 -8 q 21 103 21 51 l 21 689 q 50 770 21 740 q 128 800 79 800 q 204 770 176 800 q 232 689 232 740 l 232 383 l 99 383 l 99 108 q 126 64 99 64 q 154 108 154 64 l 154 310 l 232 310 m 154 683 q 126 728 154 728 q 99 683 99 728 l 99 456 l 154 456 l 154 683 z "},"a":{"ha":253,"x_min":21,"x_max":232,"o":"m 99 508 l 21 508 l 21 689 q 49 770 21 740 q 125 800 76 800 q 203 770 174 800 q 232 689 232 740 l 232 0 l 154 0 l 154 44 l 151 44 q 93 -8 136 -8 q 40 22 60 -8 q 21 103 21 51 l 21 292 q 24 350 21 326 q 41 392 28 374 q 81 428 54 411 q 154 464 107 444 l 154 683 q 126 728 154 728 q 99 683 99 728 l 99 508 m 154 392 q 122 372 133 381 q 106 351 111 363 q 99 325 100 340 q 99 286 99 310 l 99 108 q 126 64 99 64 q 154 108 154 64 l 154 392 z "},"g":{"ha":253,"x_min":21,"x_max":232,"o":"m 232 -119 q 203 -201 232 -171 q 125 -231 174 -231 q 49 -201 76 -231 q 21 -119 21 -171 l 21 -36 l 99 -36 l 99 -114 q 126 -158 99 -158 q 154 -114 154 -158 l 154 46 l 151 46 q 90 -8 136 -8 q 40 22 58 -8 q 21 103 21 51 l 21 689 q 40 771 21 742 q 90 800 58 800 q 151 747 136 800 l 154 747 l 154 792 l 232 792 l 232 -119 m 99 108 q 126 64 99 64 q 154 108 154 64 l 154 683 q 126 728 154 728 q 99 683 99 728 l 99 108 z "},"n":{"ha":253,"x_min":21,"x_max":232,"o":"m 154 683 q 126 728 154 728 q 99 683 99 728 l 99 0 l 21 0 l 21 792 l 99 792 l 99 746 l 101 746 q 163 800 117 800 q 213 770 194 800 q 232 689 232 740 l 232 0 l 154 0 l 154 683 z "},"h":{"ha":253,"x_min":21,"x_max":232,"o":"m 154 683 q 126 728 154 728 q 99 683 99 728 l 99 0 l 21 0 l 21 1014 l 99 1014 l 99 746 l 101 746 q 163 800 117 800 q 213 770 194 800 q 232 689 232 740 l 232 0 l 154 0 l 154 683 z "},"m":{"ha":386,"x_min":21,"x_max":365,"o":"m 154 683 q 126 728 154 728 q 99 683 99 728 l 99 0 l 21 0 l 21 792 l 99 792 l 99 746 l 101 746 q 163 800 117 800 q 206 779 189 800 q 228 721 224 758 l 231 721 q 251 779 235 758 q 296 800 268 800 q 347 770 328 800 q 365 689 365 740 l 365 0 l 288 0 l 288 683 q 260 728 288 728 q 232 683 232 728 l 232 0 l 154 0 l 154 683 z "},"u":{"ha":253,"x_min":21,"x_max":232,"o":"m 99 108 q 126 64 99 64 q 154 108 154 64 l 154 792 l 232 792 l 232 0 l 154 0 l 154 46 l 151 46 q 90 -8 136 -8 q 40 22 58 -8 q 21 103 21 51 l 21 792 l 99 792 l 99 108 z "},"r":{"ha":253,"x_min":21,"x_max":232,"o":"m 154 683 q 126 728 154 728 q 99 683 99 728 l 99 0 l 21 0 l 21 792 l 99 792 l 99 746 l 101 746 q 163 800 117 800 q 213 770 194 800 q 232 689 232 740 l 232 467 l 154 467 l 154 683 z "},"i":{"ha":119,"x_min":21,"x_max":99,"o":"m 21 944 l 99 944 l 99 819 l 21 819 l 21 944 m 21 792 l 99 792 l 99 0 l 21 0 l 21 792 z "},"j":{"ha":119,"x_min":-7,"x_max":99,"o":"m 99 819 l 21 819 l 21 944 l 99 944 l 99 819 m 99 -124 q 94 -176 99 -157 q 81 -206 90 -196 q 57 -219 72 -217 q 21 -222 42 -222 l -7 -222 l -7 -153 q 17 -147 14 -153 q 21 -121 21 -140 l 21 792 l 99 792 l 99 -124 z "},"f":{"ha":139,"x_min":7,"x_max":132,"o":"m 26 719 l 7 719 l 7 792 l 26 792 l 26 901 q 28 963 26 940 q 39 997 31 985 q 63 1011 47 1008 q 104 1014 78 1014 l 132 1014 l 132 944 q 108 938 111 944 q 104 913 104 932 l 104 792 l 132 792 l 132 719 l 104 719 l 104 0 l 26 0 l 26 719 z "},"t":{"ha":146,"x_min":7,"x_max":139,"o":"m 104 944 l 104 792 l 139 792 l 139 719 l 104 719 l 104 101 q 108 76 104 82 q 139 69 113 69 l 139 0 l 104 0 q 44 15 63 0 q 26 85 26 29 l 26 719 l 7 719 l 7 792 l 26 792 l 26 944 l 104 944 z "},"v":{"ha":243,"x_min":4,"x_max":239,"o":"m 4 792 l 86 792 l 118 296 l 125 101 l 128 101 l 135 296 l 167 792 l 239 792 l 176 0 l 76 0 l 4 792 z "},"w":{"ha":397,"x_min":4,"x_max":393,"o":"m 393 792 l 328 0 l 228 0 l 203 517 l 200 674 l 197 674 l 193 515 l 169 0 l 69 0 l 4 792 l 86 792 l 111 296 l 118 101 l 121 101 l 128 296 l 153 792 l 244 792 l 269 296 l 276 101 l 279 101 l 286 296 l 311 792 l 393 792 z "},"k":{"ha":249,"x_min":21,"x_max":244,"o":"m 171 429 l 171 426 l 244 0 l 168 0 l 101 381 l 99 381 l 99 0 l 21 0 l 21 1014 l 99 1014 l 99 454 l 101 454 l 164 792 l 242 792 l 171 429 z "},"x":{"ha":239,"x_min":0,"x_max":239,"o":"m 175 407 l 175 404 l 239 0 l 158 0 l 131 225 l 122 338 l 119 338 l 111 225 l 81 0 l 0 0 l 64 406 l 64 407 l 4 790 l 85 790 l 110 586 l 118 475 l 121 475 l 129 586 l 154 790 l 235 790 l 175 407 z "},"z":{"ha":214,"x_min":10,"x_max":204,"o":"m 204 719 l 89 72 l 203 72 l 203 0 l 10 0 l 10 72 l 125 719 l 17 719 l 17 792 l 204 792 l 204 719 z "},"y":{"ha":243,"x_min":4,"x_max":239,"o":"m 118 365 l 125 171 l 128 171 l 133 365 l 167 792 l 239 792 l 142 -222 l 68 -222 l 90 0 l 4 792 l 86 792 l 118 365 z "},",":{"ha":125,"x_min":21,"x_max":104,"o":"m 21 125 l 104 125 l 104 0 l 82 -103 l 40 -103 l 63 0 l 21 0 l 21 125 z "},"-":{"ha":181,"x_min":21,"x_max":160,"o":"m 160 432 l 21 432 l 21 510 l 160 510 l 160 432 z "},"+":{"ha":347,"x_min":21,"x_max":326,"o":"m 326 432 l 215 432 l 215 321 l 132 321 l 132 432 l 21 432 l 21 510 l 132 510 l 132 621 l 215 621 l 215 510 l 326 510 l 326 432 z "},"*":{"ha":217,"x_min":22,"x_max":194,"o":"m 69 892 l 22 903 l 39 956 l 85 936 l 81 986 l 136 986 l 132 938 l 178 957 l 194 904 l 146 892 l 179 854 l 135 822 l 108 864 l 82 821 l 38 854 l 69 892 z "},"^":{"ha":281,"x_min":21,"x_max":260,"o":"m 142 878 l 139 878 l 99 736 l 21 736 l 103 972 l 178 972 l 260 736 l 182 736 l 142 878 z "},"˜":{"ha":221,"x_min":21,"x_max":200,"o":"m 200 936 q 190 842 200 869 q 153 815 179 815 q 129 821 140 815 q 109 833 118 826 q 91 844 100 839 q 71 850 82 850 q 58 843 61 850 q 54 817 54 836 l 54 815 l 21 815 l 21 818 q 31 911 21 885 q 64 938 40 938 q 88 932 76 938 q 109 920 99 926 q 129 908 119 914 q 149 903 139 903 q 167 932 167 903 l 167 939 l 200 939 l 200 936 z "},"/":{"ha":247,"x_min":21,"x_max":226,"o":"m 21 -111 l 143 1014 l 226 1014 l 104 -111 l 21 -111 z "},"\\":{"ha":247,"x_min":21,"x_max":226,"o":"m 226 -111 l 143 -111 l 21 1014 l 104 1014 l 226 -111 z "},":":{"ha":139,"x_min":21,"x_max":104,"o":"m 21 125 l 104 125 l 104 0 l 21 0 l 21 125 m 21 681 l 104 681 l 104 556 l 21 556 l 21 681 z "},"<":{"ha":292,"x_min":21,"x_max":271,"o":"m 115 472 l 115 469 l 271 429 l 271 351 l 21 433 l 21 508 l 271 590 l 271 513 l 115 472 z "},"=":{"ha":319,"x_min":21,"x_max":299,"o":"m 299 500 l 21 500 l 21 578 l 299 578 l 299 500 m 299 353 l 21 353 l 21 431 l 299 431 l 299 353 z "},">":{"ha":292,"x_min":21,"x_max":271,"o":"m 176 469 l 176 472 l 21 513 l 21 590 l 271 508 l 271 433 l 21 351 l 21 429 l 176 469 z "},"!":{"ha":139,"x_min":21,"x_max":118,"o":"m 118 972 l 118 833 l 83 181 l 56 181 l 21 833 l 21 972 l 118 972 m 28 125 l 111 125 l 111 0 l 28 0 l 28 125 z "},"?":{"ha":265,"x_min":22,"x_max":244,"o":"m 78 299 q 91 423 78 372 q 119 518 104 474 q 148 609 135 563 q 161 718 161 656 l 161 858 q 133 903 161 903 q 106 858 106 903 l 106 604 l 22 604 l 22 869 q 51 951 22 921 q 132 981 81 981 q 214 951 183 981 q 244 869 244 921 l 244 718 q 231 593 244 644 q 203 497 218 542 q 174 407 188 453 q 161 299 161 361 l 161 181 l 78 181 l 78 299 m 78 125 l 161 125 l 161 0 l 78 0 l 78 125 z "},"'":{"ha":125,"x_min":21,"x_max":104,"o":"m 104 876 l 97 764 l 28 764 l 21 876 l 21 972 l 104 972 l 104 876 z "},"\"":{"ha":236,"x_min":21,"x_max":215,"o":"m 215 876 l 208 764 l 139 764 l 132 876 l 132 972 l 215 972 l 215 876 m 104 876 l 97 764 l 28 764 l 21 876 l 21 972 l 104 972 l 104 876 z "},"#":{"ha":361,"x_min":21,"x_max":340,"o":"m 61 300 l 21 300 l 21 378 l 67 378 l 78 594 l 35 594 l 35 672 l 83 672 l 100 972 l 183 972 l 167 672 l 222 672 l 239 972 l 322 972 l 306 672 l 340 672 l 340 594 l 300 594 l 289 378 l 326 378 l 326 300 l 283 300 l 267 0 l 183 0 l 200 300 l 144 300 l 128 0 l 44 0 l 61 300 m 206 378 l 217 594 l 161 594 l 150 378 l 206 378 z "},"@":{"ha":519,"x_min":21,"x_max":499,"o":"m 365 -103 q 260 -125 317 -125 q 172 -110 215 -125 q 96 -64 129 -94 q 42 13 63 -33 q 21 118 21 58 l 21 679 q 42 786 21 740 q 96 863 63 832 q 172 908 129 893 q 260 924 215 924 q 347 908 304 924 q 424 863 390 893 q 478 786 457 832 q 499 679 499 740 l 499 103 q 471 22 499 51 q 394 -8 443 -8 q 328 13 354 -8 q 294 72 303 35 l 292 72 q 270 13 288 35 q 225 -8 253 -8 q 174 22 193 -8 q 154 103 154 51 l 154 671 q 174 752 154 722 q 225 782 193 782 q 285 725 269 782 l 288 725 l 288 768 l 365 768 l 365 113 q 393 64 365 64 q 421 108 421 64 l 421 679 q 407 754 421 722 q 371 808 393 786 q 320 840 349 829 q 261 850 292 850 q 201 839 231 850 q 149 806 172 828 q 113 751 126 785 q 99 674 99 718 l 99 118 q 113 44 99 76 q 149 -9 126 13 q 199 -41 171 -31 q 257 -51 228 -51 q 340 -31 303 -51 l 365 -103 m 288 665 q 260 710 288 710 q 232 665 232 710 l 232 108 q 260 64 232 64 q 288 108 288 64 l 288 665 z "},"$":{"ha":257,"x_min":18,"x_max":240,"o":"m 240 103 q 219 32 240 60 q 160 -6 197 4 l 171 -137 l 88 -137 l 100 -6 q 40 31 61 3 q 18 103 18 58 l 18 342 l 101 342 l 101 114 q 129 69 101 69 q 157 114 157 69 l 157 299 q 137 403 157 360 q 92 490 117 447 q 41 589 64 536 q 18 718 18 642 l 18 869 q 40 941 18 913 q 100 978 61 969 l 88 1110 l 171 1110 l 158 978 q 219 942 197 969 q 240 869 240 914 l 240 674 l 157 674 l 157 858 q 129 903 157 903 q 101 858 101 903 l 101 718 q 122 613 101 657 q 167 525 142 568 q 217 426 194 479 q 240 299 240 374 l 240 103 z "},"€":{"ha":306,"x_min":21,"x_max":285,"o":"m 201 858 q 174 903 201 903 q 146 858 146 903 l 146 603 l 257 603 l 243 533 l 146 533 l 146 481 l 243 481 l 229 411 l 146 411 l 146 114 q 174 69 146 69 q 201 114 201 69 l 201 356 l 285 356 l 285 103 q 256 22 285 51 q 175 -8 226 -8 q 93 22 124 -8 q 63 103 63 51 l 63 411 l 21 411 l 21 481 l 63 481 l 63 533 l 21 533 l 21 603 l 63 603 l 63 869 q 93 951 63 921 q 175 981 124 981 q 256 951 226 981 q 285 869 285 921 l 285 660 l 201 660 l 201 858 z "},"%":{"ha":619,"x_min":21,"x_max":599,"o":"m 232 526 q 204 445 232 475 q 128 415 176 415 q 50 445 79 415 q 21 526 21 475 l 21 869 q 50 951 21 921 q 128 981 79 981 q 204 951 176 981 q 232 869 232 921 l 232 526 m 478 972 l 558 972 l 142 0 l 61 0 l 478 972 m 154 864 q 126 908 154 908 q 99 864 99 908 l 99 532 q 126 488 99 488 q 154 532 154 488 l 154 864 m 599 103 q 571 22 599 51 q 494 -8 543 -8 q 417 22 446 -8 q 388 103 388 51 l 388 446 q 417 527 388 497 q 494 557 446 557 q 571 527 543 557 q 599 446 599 497 l 599 103 m 521 440 q 493 485 521 485 q 465 440 465 485 l 465 108 q 493 64 465 64 q 521 108 521 64 l 521 440 z "},"&":{"ha":292,"x_min":21,"x_max":271,"o":"m 243 668 l 243 518 l 271 518 l 271 440 l 243 440 l 243 0 l 160 0 l 160 56 l 157 56 q 94 -8 142 -8 q 41 22 61 -8 q 21 103 21 51 l 21 393 q 30 449 21 431 q 67 478 39 467 l 67 481 q 30 510 39 492 q 21 565 21 528 l 21 869 q 51 951 21 921 q 133 981 82 981 q 214 951 185 981 q 243 869 243 921 l 243 724 l 160 724 l 160 858 q 132 903 160 903 q 104 858 104 903 l 104 558 q 110 526 104 535 q 132 518 117 518 l 160 518 l 160 668 l 243 668 m 132 440 q 110 432 117 440 q 104 400 104 424 l 104 114 q 132 69 104 69 q 160 119 160 69 l 160 440 l 132 440 z "},"(":{"ha":193,"x_min":21,"x_max":172,"o":"m 114 -271 q 43 83 65 -79 q 21 401 21 246 q 43 717 21 554 q 114 1069 65 881 l 172 1060 q 125 731 146 896 q 104 404 104 565 q 123 99 104 257 q 172 -261 142 -60 l 114 -271 z "},")":{"ha":193,"x_min":21,"x_max":172,"o":"m 79 1069 q 150 715 128 878 q 172 397 172 553 q 150 81 172 244 q 79 -271 128 -82 l 21 -261 q 68 68 47 -97 q 89 394 89 233 q 70 700 89 542 q 21 1060 51 858 l 79 1069 z "},"{":{"ha":299,"x_min":21,"x_max":278,"o":"m 201 567 q 180 432 201 469 q 113 394 158 394 l 113 392 q 180 354 158 392 q 201 219 201 317 l 201 -100 q 214 -174 201 -156 q 251 -193 226 -193 l 278 -193 l 278 -271 l 240 -271 q 191 -262 214 -271 q 152 -235 168 -254 q 127 -183 136 -215 q 118 -100 118 -150 l 118 258 q 101 330 118 306 q 21 354 83 354 l 21 432 q 101 456 83 432 q 118 528 118 481 l 118 883 q 129 966 118 933 q 158 1019 140 999 q 197 1047 175 1039 q 240 1056 218 1056 l 278 1056 l 278 978 l 251 978 q 230 976 239 978 q 215 964 221 974 q 205 936 208 954 q 201 885 201 918 l 201 567 z "},"|":{"ha":125,"x_min":21,"x_max":104,"o":"m 21 -257 l 21 1042 l 104 1042 l 104 -257 l 21 -257 z "},"}":{"ha":299,"x_min":21,"x_max":278,"o":"m 97 218 q 119 353 97 315 q 186 390 140 390 l 186 393 q 119 431 140 393 q 97 565 97 468 l 97 885 q 85 959 97 940 q 47 978 72 978 l 21 978 l 21 1056 l 58 1056 q 108 1047 85 1056 q 147 1019 131 1039 q 172 967 163 1000 q 181 885 181 935 l 181 526 q 198 455 181 479 q 278 431 215 431 l 278 353 q 198 329 215 353 q 181 257 181 304 l 181 -99 q 169 -181 181 -149 q 141 -234 158 -214 q 102 -262 124 -254 q 58 -271 81 -271 l 21 -271 l 21 -193 l 47 -193 q 69 -191 60 -193 q 84 -179 78 -189 q 94 -151 90 -169 q 97 -100 97 -133 l 97 218 z "},"[":{"ha":181,"x_min":21,"x_max":160,"o":"m 21 -271 l 21 1056 l 160 1056 l 160 978 l 104 978 l 104 -193 l 160 -193 l 160 -271 l 21 -271 z "},"]":{"ha":181,"x_min":21,"x_max":160,"o":"m 160 1056 l 160 -271 l 21 -271 l 21 -193 l 76 -193 l 76 978 l 21 978 l 21 1056 l 160 1056 z "},"‘":{"ha":125,"x_min":21,"x_max":104,"o":"m 104 744 l 21 744 l 21 869 l 43 972 l 85 972 l 63 869 l 104 869 l 104 744 z "},"’":{"ha":125,"x_min":21,"x_max":104,"o":"m 21 972 l 104 972 l 104 847 l 82 745 l 40 745 l 63 847 l 21 847 l 21 972 z "},"“":{"ha":239,"x_min":21,"x_max":218,"o":"m 104 744 l 21 744 l 21 869 l 43 972 l 85 972 l 63 869 l 104 869 l 104 744 m 218 744 l 135 744 l 135 869 l 157 972 l 199 972 l 176 869 l 218 869 l 218 744 z "},"”":{"ha":239,"x_min":21,"x_max":218,"o":"m 135 972 l 218 972 l 218 847 l 196 745 l 154 745 l 176 847 l 135 847 l 135 972 m 21 972 l 104 972 l 104 847 l 82 745 l 40 745 l 63 847 l 21 847 l 21 972 z "},"‚":{"ha":125,"x_min":21,"x_max":104,"o":"m 21 125 l 104 125 l 104 0 l 82 -103 l 40 -103 l 63 0 l 21 0 l 21 125 z "},"„":{"ha":236,"x_min":21,"x_max":215,"o":"m 21 125 l 104 125 l 104 0 l 82 -103 l 40 -103 l 63 0 l 21 0 l 21 125 m 132 125 l 215 125 l 215 0 l 193 -103 l 151 -103 l 174 0 l 132 0 l 132 125 z "},"•":{"ha":168,"x_min":22,"x_max":147,"o":"m 22 503 q 40 547 22 529 q 85 565 58 565 q 129 547 111 565 q 147 503 147 529 q 129 458 147 476 q 85 440 111 440 q 40 458 58 440 q 22 503 22 476 z "},"_":{"ha":319,"x_min":21,"x_max":299,"o":"m 299 -78 l 21 -78 l 21 0 l 299 0 l 299 -78 z "},"–":{"ha":583,"x_min":21,"x_max":563,"o":"m 563 432 l 21 432 l 21 510 l 563 510 l 563 432 z "},"—":{"ha":917,"x_min":21,"x_max":896,"o":"m 896 432 l 21 432 l 21 510 l 896 510 l 896 432 z "},"¯":{"ha":194,"x_min":21,"x_max":174,"o":"m 174 814 l 21 814 l 21 897 l 174 897 l 174 814 z "},"¬":{"ha":408,"x_min":21,"x_max":388,"o":"m 21 972 l 388 972 l 388 0 l 21 0 l 21 972 m 204 611 l 285 903 l 121 903 l 204 611 m 318 210 l 318 772 l 239 488 l 318 210 m 90 200 l 169 488 l 90 767 l 90 200 m 124 69 l 289 69 l 206 364 l 124 69 z "},"™":{"ha":326,"x_min":21,"x_max":304,"o":"m 107 929 l 86 929 l 86 681 l 42 681 l 42 929 l 21 929 l 21 972 l 107 972 l 107 929 m 304 681 l 261 681 l 261 868 l 264 931 l 261 931 l 258 868 l 244 681 l 176 681 l 158 931 l 156 931 l 158 868 l 158 681 l 115 681 l 115 972 l 197 972 l 208 801 l 210 739 l 213 739 l 213 801 l 225 972 l 304 972 l 304 681 z "},"®":{"ha":543,"x_min":21,"x_max":522,"o":"m 21 733 q 42 841 21 794 q 99 918 64 888 q 180 964 135 949 q 272 979 225 979 q 364 964 319 979 q 444 918 408 949 q 501 841 479 888 q 522 733 522 794 l 522 239 q 501 131 522 176 q 444 53 479 85 q 364 7 408 22 q 272 -8 319 -8 q 180 7 225 -8 q 99 53 135 22 q 42 131 64 85 q 21 239 21 176 l 21 733 m 104 238 q 119 164 104 196 q 157 110 133 132 q 210 78 181 89 q 272 68 240 68 q 334 78 304 68 q 387 110 364 89 q 424 164 410 132 q 439 238 439 196 l 439 733 q 424 807 439 775 q 387 860 410 839 q 334 892 364 882 q 272 903 304 903 q 210 892 240 903 q 157 860 181 882 q 119 807 133 839 q 104 733 104 775 l 104 238 m 299 413 q 292 444 299 436 q 271 453 286 453 l 243 453 l 243 138 l 160 138 l 160 833 l 272 833 q 382 722 382 833 l 382 579 q 373 522 382 540 q 338 493 364 504 l 338 490 q 373 462 364 479 q 382 406 382 444 l 382 263 q 383 203 382 233 q 396 140 385 174 l 396 138 l 313 138 q 299 264 299 199 l 299 413 m 299 715 q 271 756 299 756 l 243 756 l 243 532 l 271 532 q 292 540 286 532 q 299 572 299 549 l 299 715 z "},"©":{"ha":543,"x_min":21,"x_max":522,"o":"m 21 733 q 42 841 21 794 q 99 918 64 888 q 180 964 135 949 q 272 979 225 979 q 364 964 319 979 q 444 918 408 949 q 501 841 479 888 q 522 733 522 794 l 522 239 q 501 131 522 176 q 444 53 479 85 q 364 7 408 22 q 272 -8 319 -8 q 180 7 225 -8 q 99 53 135 22 q 42 131 64 85 q 21 239 21 176 l 21 733 m 104 239 q 119 165 104 197 q 157 112 133 133 q 211 79 181 90 q 272 68 242 68 q 334 78 304 68 q 387 110 364 89 q 424 164 410 132 q 439 239 439 196 l 439 733 q 424 808 439 776 q 387 861 410 840 q 334 892 364 882 q 272 903 304 903 q 211 892 242 903 q 157 861 181 882 q 119 808 133 840 q 104 733 104 776 l 104 239 m 300 725 q 272 769 300 769 q 244 725 244 769 l 244 247 q 272 203 244 203 q 300 247 300 203 l 300 417 l 383 417 l 383 236 q 353 155 383 185 q 274 125 324 125 q 192 155 222 125 q 161 236 161 185 l 161 736 q 192 817 161 788 q 274 847 222 847 q 353 817 324 847 q 383 736 383 788 l 383 582 l 300 582 l 300 725 z "},"¤":{"ha":408,"x_min":21,"x_max":388,"o":"m 21 972 l 388 972 l 388 0 l 21 0 l 21 972 m 204 611 l 285 903 l 121 903 l 204 611 m 318 210 l 318 772 l 239 488 l 318 210 m 90 200 l 169 488 l 90 767 l 90 200 m 124 69 l 289 69 l 206 364 l 124 69 z "},"¢":{"ha":253,"x_min":21,"x_max":232,"o":"m 154 683 q 126 728 154 728 q 99 683 99 728 l 99 108 q 126 64 99 64 q 154 108 154 64 l 154 338 l 232 338 l 232 103 q 212 31 232 58 q 156 -6 192 3 l 168 -137 l 85 -137 l 97 -4 q 41 32 61 4 q 21 103 21 60 l 21 689 q 41 760 21 732 q 97 796 61 788 l 85 929 l 168 929 l 156 797 q 212 761 192 789 q 232 689 232 733 l 232 490 l 154 490 l 154 683 z "},"£":{"ha":319,"x_min":21,"x_max":299,"o":"m 201 858 q 174 903 201 903 q 146 858 146 903 l 146 425 l 271 425 l 271 347 l 146 347 l 146 211 q 140 125 146 153 q 122 78 135 97 l 299 78 l 299 0 l 21 0 l 21 76 q 42 102 33 89 q 55 131 50 115 q 61 167 60 147 q 63 217 63 188 l 63 347 l 21 347 l 21 425 l 63 425 l 63 869 q 93 951 63 921 q 175 981 124 981 q 256 951 226 981 q 285 869 285 921 l 285 604 l 201 604 l 201 858 z "},"¥":{"ha":242,"x_min":0,"x_max":242,"o":"m 171 383 l 229 383 l 229 306 l 163 306 l 163 267 l 229 267 l 229 189 l 163 189 l 163 0 l 79 0 l 79 189 l 13 189 l 13 267 l 79 267 l 79 306 l 13 306 l 13 383 l 71 383 l 0 972 l 86 972 l 114 638 l 119 499 l 122 499 l 128 638 l 156 972 l 242 972 l 171 383 z "},"ƒ":{"ha":161,"x_min":21,"x_max":154,"o":"m 21 -222 q 45 -216 42 -222 q 49 -190 49 -210 l 49 747 l 29 747 l 29 819 l 49 819 l 49 929 q 51 990 49 968 q 61 1024 53 1013 q 85 1039 69 1036 q 126 1042 100 1042 l 154 1042 l 154 972 q 130 966 133 972 q 126 940 126 960 l 126 819 l 154 819 l 154 747 l 126 747 l 126 -179 q 124 -240 126 -218 q 114 -274 122 -262 q 90 -289 106 -286 q 49 -292 75 -292 l 21 -292 l 21 -222 z "},"−":{"ha":347,"x_min":21,"x_max":326,"o":"m 326 432 l 21 432 l 21 510 l 326 510 l 326 432 z "},"±":{"ha":347,"x_min":21,"x_max":326,"o":"m 326 488 l 215 488 l 215 376 l 132 376 l 132 488 l 21 488 l 21 565 l 132 565 l 132 676 l 215 676 l 215 565 l 326 565 l 326 488 m 326 251 l 21 251 l 21 329 l 326 329 l 326 251 z "},"×":{"ha":353,"x_min":21,"x_max":332,"o":"m 276 315 l 176 415 l 78 317 l 24 372 l 121 471 l 21 571 l 76 625 l 176 525 l 275 624 l 329 569 l 232 471 l 332 371 l 276 315 z "},"÷":{"ha":410,"x_min":21,"x_max":389,"o":"m 388 432 l 21 432 l 21 510 l 388 510 l 388 432 m 167 664 l 242 664 l 242 551 l 167 551 l 167 664 m 167 390 l 242 390 l 242 278 l 167 278 l 167 390 z "},"¦":{"ha":125,"x_min":21,"x_max":104,"o":"m 21 476 l 21 1042 l 104 1042 l 104 476 l 21 476 m 21 -257 l 21 310 l 104 310 l 104 -257 l 21 -257 z "},"…":{"ha":404,"x_min":21,"x_max":383,"o":"m 21 125 l 104 125 l 104 0 l 21 0 l 21 125 m 160 125 l 243 125 l 243 0 l 160 0 l 160 125 m 300 125 l 383 125 l 383 0 l 300 0 l 300 125 z "},"·":{"ha":125,"x_min":21,"x_max":104,"o":"m 21 521 l 104 521 l 104 396 l 21 396 l 21 521 z "},"¡":{"ha":139,"x_min":21,"x_max":118,"o":"m 111 792 l 111 667 l 28 667 l 28 792 l 111 792 m 21 -42 l 56 611 l 83 611 l 118 -42 l 118 -181 l 21 -181 l 21 -42 z "},"¿":{"ha":265,"x_min":22,"x_max":244,"o":"m 189 667 l 106 667 l 106 792 l 189 792 l 189 667 m 189 493 q 176 369 189 421 q 147 274 163 318 q 119 183 132 229 q 106 74 106 136 l 106 -67 q 133 -111 106 -111 q 161 -67 161 -111 l 161 188 l 244 188 l 244 -78 q 215 -159 244 -129 q 135 -189 185 -189 q 52 -159 82 -189 q 22 -78 22 -129 l 22 74 q 35 199 22 147 q 64 294 49 250 q 92 385 79 339 q 106 493 106 431 l 106 611 l 189 611 l 189 493 z "},"°":{"ha":208,"x_min":21,"x_max":188,"o":"m 21 897 q 45 956 21 932 q 104 981 69 981 q 163 956 139 981 q 188 897 188 932 q 163 839 188 864 q 104 814 139 814 q 45 839 69 814 q 21 897 21 864 m 61 897 q 74 867 61 879 q 104 854 86 854 q 135 867 122 854 q 147 897 147 879 q 135 928 147 915 q 104 940 122 940 q 74 928 86 940 q 61 897 61 915 z "},"ª":{"ha":190,"x_min":21,"x_max":168,"o":"m 75 778 l 21 778 l 21 903 q 40 960 21 939 q 93 981 60 981 q 148 960 128 981 q 168 903 168 939 l 168 419 l 114 419 l 114 450 l 111 450 q 69 413 100 413 q 34 433 47 413 q 21 490 21 454 l 21 636 q 23 678 21 661 q 35 707 25 694 q 63 731 44 719 q 114 757 81 743 l 114 899 q 94 931 114 931 q 75 899 75 931 l 75 778 m 114 706 q 80 677 85 690 q 75 632 75 664 l 75 494 q 94 463 75 463 q 114 494 114 463 l 114 706 z "},"º":{"ha":192,"x_min":21,"x_max":171,"o":"m 171 481 q 151 423 171 444 q 97 401 131 401 q 41 423 61 401 q 21 481 21 444 l 21 903 q 41 960 21 939 q 97 981 61 981 q 151 960 131 981 q 171 903 171 939 l 171 481 m 115 899 q 96 929 115 929 q 76 899 76 929 l 76 483 q 96 453 76 453 q 115 483 115 453 l 115 899 z "},"¹":{"ha":160,"x_min":21,"x_max":139,"o":"m 108 468 l 139 468 l 139 422 l 21 422 l 21 468 l 53 468 l 53 889 l 21 889 l 21 928 q 57 937 51 928 q 63 972 63 946 l 108 972 l 108 468 z "},"²":{"ha":190,"x_min":22,"x_max":168,"o":"m 22 478 q 40 597 22 553 q 78 674 58 642 q 103 720 93 697 q 114 774 114 743 l 114 900 q 96 929 114 929 q 76 904 76 929 l 76 768 l 22 768 l 22 917 q 42 964 22 947 q 93 981 61 981 q 148 962 128 981 q 168 911 168 943 l 168 778 q 157 718 168 744 q 135 672 146 692 q 94 593 113 636 q 76 481 76 550 l 76 474 l 168 474 l 168 422 l 22 422 l 22 478 z "},"³":{"ha":190,"x_min":21,"x_max":169,"o":"m 76 789 l 21 789 l 21 903 q 40 960 21 939 q 94 981 60 981 q 149 960 129 981 q 169 903 169 939 l 169 761 q 164 731 169 740 q 139 715 158 722 l 139 714 q 164 697 158 707 q 169 667 169 688 l 169 486 q 149 429 169 450 q 94 408 129 408 q 40 429 60 408 q 21 486 21 450 l 21 621 l 76 621 l 76 479 q 96 453 76 453 q 114 479 114 453 l 114 668 q 94 692 114 692 l 76 692 l 76 736 l 94 736 q 114 760 114 736 l 114 910 q 96 936 114 936 q 76 910 76 936 l 76 789 z "},"⁴":{"ha":203,"x_min":22,"x_max":182,"o":"m 22 539 l 83 972 l 164 972 l 164 547 l 182 547 l 182 494 l 164 494 l 164 421 l 110 421 l 110 494 l 22 494 l 22 539 m 110 547 l 117 918 l 115 918 l 75 547 l 110 547 z "},"⁄":{"ha":290,"x_min":21,"x_max":269,"o":"m 21 0 l 213 972 l 269 972 l 78 0 l 21 0 z "},"¼":{"ha":447,"x_min":21,"x_max":426,"o":"m 108 468 l 139 468 l 139 422 l 21 422 l 21 468 l 53 468 l 53 889 l 21 889 l 21 928 q 57 937 51 928 q 63 972 63 946 l 108 972 l 108 468 m 104 0 l 296 972 l 353 972 l 161 0 l 104 0 m 267 118 l 328 551 l 408 551 l 408 126 l 426 126 l 426 74 l 408 74 l 408 0 l 354 0 l 354 74 l 267 74 l 267 118 m 354 126 l 361 497 l 360 497 l 319 126 l 354 126 z "},"½":{"ha":476,"x_min":21,"x_max":454,"o":"m 104 0 l 296 972 l 353 972 l 161 0 l 104 0 m 308 54 q 326 174 308 129 q 364 250 344 218 q 390 297 379 274 q 400 350 400 319 l 400 476 q 382 506 400 506 q 363 481 363 506 l 363 344 l 308 344 l 308 493 q 328 540 308 524 q 379 557 347 557 q 434 538 414 557 q 454 488 454 519 l 454 354 q 443 294 454 321 q 421 249 432 268 q 381 169 399 213 q 363 57 363 126 l 363 50 l 454 50 l 454 -1 l 308 -1 l 308 54 m 108 468 l 139 468 l 139 422 l 21 422 l 21 468 l 53 468 l 53 889 l 21 889 l 21 928 q 57 937 51 928 q 63 972 63 946 l 108 972 l 108 468 z "},"¾":{"ha":447,"x_min":21,"x_max":426,"o":"m 118 0 l 310 972 l 367 972 l 175 0 l 118 0 m 267 101 l 328 535 l 408 535 l 408 110 l 426 110 l 426 57 l 408 57 l 408 -17 l 354 -17 l 354 57 l 267 57 l 267 101 m 354 110 l 361 481 l 360 481 l 319 110 l 354 110 m 76 789 l 21 789 l 21 903 q 40 960 21 939 q 94 981 60 981 q 149 960 129 981 q 169 903 169 939 l 169 761 q 164 731 169 740 q 139 715 158 722 l 139 714 q 164 697 158 707 q 169 667 169 688 l 169 486 q 149 429 169 450 q 94 408 129 408 q 40 429 60 408 q 21 486 21 450 l 21 621 l 76 621 l 76 479 q 96 453 76 453 q 114 479 114 453 l 114 668 q 94 692 114 692 l 76 692 l 76 736 l 94 736 q 114 760 114 736 l 114 910 q 96 936 114 936 q 76 910 76 936 l 76 789 z "},"‰":{"ha":886,"x_min":21,"x_max":865,"o":"m 232 526 q 204 445 232 475 q 128 415 176 415 q 50 445 79 415 q 21 526 21 475 l 21 869 q 50 951 21 921 q 128 981 79 981 q 204 951 176 981 q 232 869 232 921 l 232 526 m 478 972 l 558 972 l 142 0 l 61 0 l 478 972 m 154 864 q 126 908 154 908 q 99 864 99 908 l 99 532 q 126 488 99 488 q 154 532 154 488 l 154 864 m 599 103 q 571 22 599 51 q 494 -8 543 -8 q 417 22 446 -8 q 388 103 388 51 l 388 446 q 417 527 388 497 q 494 557 446 557 q 571 527 543 557 q 599 446 599 497 l 599 103 m 865 103 q 838 22 865 51 q 761 -8 810 -8 q 683 22 713 -8 q 654 103 654 51 l 654 446 q 683 527 654 497 q 761 557 713 557 q 838 527 810 557 q 865 446 865 497 l 865 103 m 521 440 q 493 485 521 485 q 465 440 465 485 l 465 108 q 493 64 465 64 q 521 108 521 64 l 521 440 m 788 440 q 760 485 788 485 q 732 440 732 485 l 732 108 q 760 64 732 64 q 788 108 788 64 l 788 440 z "},"μ":{"ha":408,"x_min":21,"x_max":388,"o":"m 21 972 l 388 972 l 388 0 l 21 0 l 21 972 m 204 611 l 285 903 l 121 903 l 204 611 m 318 210 l 318 772 l 239 488 l 318 210 m 90 200 l 169 488 l 90 767 l 90 200 m 124 69 l 289 69 l 206 364 l 124 69 z "},"¶":{"ha":361,"x_min":21,"x_max":340,"o":"m 257 -83 l 257 972 l 340 972 l 340 -83 l 257 -83 m 118 -83 l 118 463 q 44 517 67 463 q 21 710 21 572 q 27 835 21 785 q 46 916 33 886 q 77 959 58 946 q 119 972 96 972 l 201 972 l 201 -83 l 118 -83 z "},"§":{"ha":253,"x_min":21,"x_max":232,"o":"m 232 278 q 227 240 232 257 q 215 208 222 224 q 227 171 222 190 q 232 129 232 151 l 232 -29 q 203 -110 232 -81 q 125 -140 174 -140 q 49 -110 76 -140 q 21 -29 21 -81 l 21 147 l 99 147 l 99 -24 q 126 -68 99 -68 q 154 -24 154 -68 l 154 129 q 135 201 154 169 q 93 265 117 233 q 44 342 67 301 q 21 438 21 382 l 21 563 q 28 609 21 589 q 49 644 36 629 q 28 693 36 668 q 21 750 21 718 l 21 869 q 50 951 21 921 q 128 981 79 981 q 204 951 176 981 q 232 869 232 921 l 232 731 l 154 731 l 154 864 q 126 908 154 908 q 99 864 99 908 l 99 750 q 117 678 99 710 q 160 614 136 646 q 209 536 186 578 q 232 442 232 494 l 232 278 m 154 442 q 138 509 154 479 q 99 569 121 539 l 99 557 l 99 438 q 115 370 99 401 q 154 308 132 339 l 154 442 z "},"†":{"ha":236,"x_min":21,"x_max":215,"o":"m 160 972 l 160 792 l 215 792 l 215 714 l 160 714 l 160 0 l 76 0 l 76 714 l 21 714 l 21 792 l 76 792 l 76 972 l 160 972 z "},"‡":{"ha":236,"x_min":21,"x_max":215,"o":"m 21 792 l 76 792 l 76 972 l 160 972 l 160 792 l 215 792 l 215 714 l 160 714 l 160 258 l 215 258 l 215 181 l 160 181 l 160 0 l 76 0 l 76 181 l 21 181 l 21 258 l 76 258 l 76 714 l 21 714 l 21 792 z "},"~":{"ha":292,"x_min":21,"x_max":271,"o":"m 271 551 q 210 424 271 424 q 176 431 193 424 q 145 447 160 439 q 117 463 131 456 q 93 471 104 471 q 71 433 71 471 l 71 425 l 21 425 l 21 426 q 86 561 21 561 q 117 554 101 561 q 148 540 133 547 q 176 525 163 532 q 201 518 190 518 q 222 551 222 518 l 222 563 l 271 563 l 271 551 z "},"‹":{"ha":153,"x_min":21,"x_max":132,"o":"m 63 565 l 132 565 l 90 399 l 132 232 l 63 232 l 21 399 l 63 565 z "},"›":{"ha":153,"x_min":21,"x_max":132,"o":"m 90 232 l 21 232 l 63 399 l 21 565 l 90 565 l 132 399 l 90 232 z "},"«":{"ha":264,"x_min":21,"x_max":243,"o":"m 63 565 l 132 565 l 90 399 l 132 232 l 63 232 l 21 399 l 63 565 m 174 565 l 243 565 l 201 399 l 243 232 l 174 232 l 132 399 l 174 565 z "},"»":{"ha":264,"x_min":21,"x_max":243,"o":"m 201 232 l 132 232 l 174 399 l 132 565 l 201 565 l 243 399 l 201 232 m 90 232 l 21 232 l 63 399 l 21 565 l 90 565 l 132 399 l 90 232 z "},"˘":{"ha":244,"x_min":21,"x_max":224,"o":"m 88 942 q 122 890 88 890 q 157 942 157 890 l 224 942 q 197 842 224 872 q 122 813 171 813 q 47 842 74 813 q 21 942 21 872 l 88 942 z "},"˙":{"ha":125,"x_min":21,"x_max":104,"o":"m 21 919 l 104 919 l 104 808 l 21 808 l 21 919 z "},"˚":{"ha":211,"x_min":21,"x_max":189,"o":"m 21 878 q 106 960 21 960 q 167 938 146 960 q 189 876 189 917 q 106 794 189 794 q 21 878 21 794 m 75 878 q 106 849 75 849 q 135 876 135 849 q 106 906 135 906 q 75 878 75 906 z "},"˛":{"ha":147,"x_min":21,"x_max":126,"o":"m 126 -14 q 96 -25 108 -14 q 83 -51 83 -36 q 115 -81 83 -81 q 126 -79 124 -81 l 126 -164 q 99 -167 115 -167 q 42 -147 64 -167 q 21 -94 21 -126 q 51 -31 21 -56 q 126 -6 82 -6 l 126 -14 z "},"ˆ":{"ha":189,"x_min":21,"x_max":168,"o":"m 21 796 l 53 958 l 136 958 l 168 796 l 113 796 l 96 889 l 93 889 l 76 796 l 21 796 z "},"ˇ":{"ha":244,"x_min":76,"x_max":224,"o":"m 224 958 l 192 796 l 108 796 l 76 958 l 132 958 l 149 865 l 151 865 l 168 958 l 224 958 z "},"ı":{"ha":119,"x_min":21,"x_max":99,"o":"m 21 792 l 99 792 l 99 0 l 21 0 l 21 792 z "},"´":{"ha":143,"x_min":21,"x_max":122,"o":"m 21 796 l 39 958 l 122 958 l 82 796 l 21 796 z "},"`":{"ha":143,"x_min":21,"x_max":122,"o":"m 21 958 l 104 958 l 122 796 l 61 796 l 21 958 z "},"¨":{"ha":186,"x_min":21,"x_max":165,"o":"m 21 919 l 83 919 l 83 808 l 21 808 l 21 919 m 103 919 l 165 919 l 165 808 l 103 808 l 103 919 z "},"¸":{"ha":210,"x_min":22,"x_max":189,"o":"m 110 3 l 103 -28 q 165 -49 140 -28 q 189 -100 189 -69 q 156 -159 189 -136 q 69 -182 122 -182 q 22 -175 50 -182 l 22 -110 q 37 -112 29 -111 q 53 -112 44 -112 q 92 -107 78 -112 q 107 -90 107 -101 q 91 -72 107 -79 q 49 -64 75 -64 l 64 3 l 110 3 z "},"ﬁ":{"ha":258,"x_min":7,"x_max":238,"o":"m 26 719 l 7 719 l 7 792 l 26 792 l 26 901 q 28 963 26 940 q 39 997 31 985 q 63 1011 47 1008 q 104 1014 78 1014 l 132 1014 l 132 944 q 108 938 111 944 q 104 913 104 932 l 104 792 l 132 792 l 132 719 l 104 719 l 104 0 l 26 0 l 26 719 m 160 944 l 238 944 l 238 819 l 160 819 l 160 944 m 160 792 l 238 792 l 238 0 l 160 0 l 160 792 z "},"ﬂ":{"ha":258,"x_min":7,"x_max":238,"o":"m 26 719 l 7 719 l 7 792 l 26 792 l 26 901 q 28 963 26 940 q 39 997 31 985 q 63 1011 47 1008 q 104 1014 78 1014 l 132 1014 l 132 944 q 108 938 111 944 q 104 913 104 932 l 104 792 l 132 792 l 132 719 l 104 719 l 104 0 l 26 0 l 26 719 m 160 1014 l 238 1014 l 238 0 l 160 0 l 160 1014 z "},"Þ":{"ha":264,"x_min":21,"x_max":243,"o":"m 243 336 q 219 255 243 285 q 133 225 196 225 l 104 225 l 104 0 l 21 0 l 21 972 l 104 972 l 104 771 l 133 771 q 219 741 196 771 q 243 660 243 711 l 243 336 m 160 653 q 153 685 160 676 q 132 693 147 693 l 104 693 l 104 303 l 132 303 q 153 311 147 303 q 160 343 160 319 l 160 653 z "},"þ":{"ha":253,"x_min":21,"x_max":232,"o":"m 99 1014 l 99 746 l 101 746 q 163 800 117 800 q 213 770 194 800 q 232 689 232 740 l 232 103 q 213 22 232 51 q 163 -8 194 -8 q 101 46 117 -8 l 99 46 l 99 -222 l 21 -222 l 21 1014 l 99 1014 m 154 683 q 126 728 154 728 q 99 683 99 728 l 99 108 q 126 64 99 64 q 154 108 154 64 l 154 683 z "},"ß":{"ha":260,"x_min":21,"x_max":243,"o":"m 160 863 q 153 894 160 886 q 132 903 147 903 l 129 903 q 104 863 104 903 l 104 0 l 21 0 l 21 869 q 131 981 21 981 l 133 981 q 243 869 243 981 l 243 607 q 234 551 243 569 q 197 522 225 533 l 197 519 q 234 490 225 508 q 243 435 243 472 l 243 111 q 133 0 243 0 l 126 0 l 126 78 l 133 78 q 160 118 160 78 l 160 442 q 153 474 160 465 q 132 482 147 482 l 126 482 l 126 560 l 132 560 q 160 600 160 560 l 160 863 z "},"ð":{"ha":254,"x_min":21,"x_max":232,"o":"m 36 1015 q 147 940 104 988 l 193 972 l 215 938 l 172 910 q 223 759 214 844 q 232 565 232 674 l 232 99 q 204 21 232 50 q 128 -8 176 -8 q 50 22 79 -8 q 21 103 21 51 l 21 689 q 40 770 21 740 q 93 800 60 800 q 150 761 131 800 l 151 763 q 142 822 149 793 q 124 876 135 850 l 86 851 l 63 885 l 106 913 q 22 992 74 961 l 36 1015 m 154 683 q 126 728 154 728 q 99 683 99 728 l 99 108 q 126 64 99 64 q 154 108 154 64 l 154 683 z "},"Æ":{"ha":314,"x_min":0,"x_max":304,"o":"m 290 894 l 242 894 l 242 538 l 297 538 l 297 460 l 242 460 l 242 78 l 304 78 l 304 0 l 158 0 l 158 256 l 104 256 l 78 0 l 0 0 l 101 972 l 290 972 l 290 894 m 158 333 l 158 849 l 156 849 l 139 610 l 111 333 l 158 333 z "},"Œ":{"ha":315,"x_min":21,"x_max":306,"o":"m 292 894 l 243 894 l 243 538 l 299 538 l 299 460 l 243 460 l 243 78 l 306 78 l 306 0 l 133 0 q 51 30 82 0 q 21 111 21 60 l 21 861 q 51 942 21 913 q 133 972 82 972 l 292 972 l 292 894 m 132 894 q 104 850 104 894 l 104 122 q 132 78 104 78 l 160 78 l 160 894 l 132 894 z "},"æ":{"ha":386,"x_min":21,"x_max":365,"o":"m 160 58 q 135 9 153 26 q 92 -8 117 -8 q 40 22 60 -8 q 21 103 21 51 l 21 278 q 26 340 21 315 q 44 383 31 365 q 85 417 58 401 q 154 450 111 432 l 154 683 q 126 728 154 728 q 99 683 99 728 l 99 508 l 21 508 l 21 689 q 49 770 21 740 q 121 800 76 800 q 192 765 165 800 l 194 765 q 265 800 221 800 q 338 770 310 800 q 365 689 365 740 l 365 383 l 232 383 l 232 108 q 260 64 232 64 q 288 108 288 64 l 288 310 l 365 310 l 365 103 q 338 22 365 51 q 261 -8 310 -8 q 199 9 225 -8 q 163 58 172 26 l 160 58 m 288 683 q 260 728 288 728 q 232 683 232 728 l 232 456 l 288 456 l 288 683 m 154 378 q 125 360 136 368 q 108 340 114 351 q 100 313 101 329 q 99 272 99 297 l 99 108 q 126 64 99 64 q 154 108 154 64 l 154 378 z "},"œ":{"ha":386,"x_min":21,"x_max":365,"o":"m 365 310 l 365 103 q 338 22 365 51 q 265 -8 310 -8 q 196 26 219 -8 l 193 26 q 122 -8 167 -8 q 49 22 78 -8 q 21 103 21 51 l 21 689 q 49 769 21 739 q 122 800 76 800 q 193 765 168 800 l 196 765 q 267 800 221 800 q 338 770 311 800 q 365 689 365 740 l 365 383 l 232 383 l 232 108 q 260 64 232 64 q 288 108 288 64 l 288 310 l 365 310 m 154 683 q 126 728 154 728 q 99 683 99 728 l 99 108 q 126 64 99 64 q 154 108 154 64 l 154 683 m 288 683 q 260 728 288 728 q 232 683 232 728 l 232 456 l 288 456 l 288 683 z "},"Ø":{"ha":264,"x_min":21,"x_max":243,"o":"m 243 103 q 214 22 243 51 q 133 -8 185 -8 q 60 14 90 -8 l 56 -8 l 21 0 l 31 53 q 21 103 21 72 l 21 869 q 51 951 21 921 q 133 981 82 981 q 203 960 176 981 l 207 981 l 243 972 l 233 921 q 243 869 243 900 l 243 103 m 160 858 q 132 903 160 903 q 104 858 104 903 l 104 439 l 160 732 l 160 858 m 104 114 q 132 69 104 69 q 160 114 160 69 l 160 536 l 104 246 l 104 114 z "},"ø":{"ha":253,"x_min":21,"x_max":232,"o":"m 232 103 q 204 22 232 51 q 128 -8 176 -8 q 60 13 88 -8 l 56 -8 l 21 0 l 32 49 q 21 103 21 74 l 21 689 q 50 770 21 740 q 128 800 79 800 q 192 781 165 800 l 196 800 l 232 792 l 221 743 q 232 689 232 718 l 232 103 m 154 683 q 126 728 154 728 q 99 683 99 728 l 99 356 l 154 610 l 154 683 m 99 108 q 126 64 99 64 q 154 108 154 64 l 154 439 l 99 188 l 99 108 z "},"À":{"ha":246,"x_min":0,"x_max":246,"o":"m 246 0 l 158 0 l 144 256 l 92 256 l 78 0 l 0 0 l 63 972 l 174 972 l 246 0 m 140 333 l 126 610 l 119 849 l 117 849 l 111 610 l 96 333 l 140 333 m 47 1176 l 131 1176 l 149 1014 l 88 1014 l 47 1176 z "},"Á":{"ha":246,"x_min":0,"x_max":246,"o":"m 246 0 l 158 0 l 144 256 l 92 256 l 78 0 l 0 0 l 63 972 l 174 972 l 246 0 m 140 333 l 126 610 l 119 849 l 117 849 l 111 610 l 96 333 l 140 333 m 88 1014 l 106 1176 l 189 1176 l 149 1014 l 88 1014 z "},"Â":{"ha":246,"x_min":0,"x_max":246,"o":"m 246 0 l 158 0 l 144 256 l 92 256 l 78 0 l 0 0 l 63 972 l 174 972 l 246 0 m 140 333 l 126 610 l 119 849 l 117 849 l 111 610 l 96 333 l 140 333 m 43 1014 l 75 1176 l 158 1176 l 190 1014 l 135 1014 l 118 1107 l 115 1107 l 99 1014 l 43 1014 z "},"Ã":{"ha":246,"x_min":0,"x_max":246,"o":"m 246 0 l 158 0 l 144 256 l 92 256 l 78 0 l 0 0 l 63 972 l 174 972 l 246 0 m 140 333 l 126 610 l 119 849 l 117 849 l 111 610 l 96 333 l 140 333 m 208 1154 q 198 1060 208 1088 q 161 1033 188 1033 q 138 1039 149 1033 q 117 1051 126 1044 q 99 1063 108 1057 q 79 1068 90 1068 q 66 1061 69 1068 q 63 1035 63 1054 l 63 1033 l 29 1033 l 29 1036 q 39 1129 29 1103 q 72 1156 49 1156 q 96 1150 85 1156 q 117 1138 107 1144 q 138 1126 128 1132 q 157 1121 147 1121 q 175 1150 175 1121 l 175 1157 l 208 1157 l 208 1154 z "},"Ä":{"ha":246,"x_min":0,"x_max":246,"o":"m 246 0 l 158 0 l 144 256 l 92 256 l 78 0 l 0 0 l 63 972 l 174 972 l 246 0 m 140 333 l 126 610 l 119 849 l 117 849 l 111 610 l 96 333 l 140 333 m 46 1138 l 108 1138 l 108 1026 l 46 1026 l 46 1138 m 128 1138 l 190 1138 l 190 1026 l 128 1026 l 128 1138 z "},"Å":{"ha":246,"x_min":0,"x_max":246,"o":"m 246 0 l 158 0 l 144 256 l 92 256 l 78 0 l 0 0 l 63 972 l 174 972 l 246 0 m 140 333 l 126 610 l 119 849 l 117 849 l 111 610 l 96 333 l 140 333 m 33 1096 q 118 1178 33 1178 q 180 1156 158 1178 q 201 1094 201 1135 q 118 1013 201 1013 q 33 1096 33 1013 m 88 1096 q 118 1067 88 1067 q 147 1094 147 1067 q 118 1124 147 1124 q 88 1096 88 1124 z "},"Ç":{"ha":264,"x_min":21,"x_max":243,"o":"m 160 858 q 132 903 160 903 q 104 858 104 903 l 104 114 q 132 69 104 69 q 160 114 160 69 l 160 411 l 243 411 l 243 103 q 214 22 243 51 q 133 -8 185 -8 q 51 22 82 -8 q 21 103 21 51 l 21 869 q 51 951 21 921 q 133 981 82 981 q 214 951 185 981 q 243 869 243 921 l 243 604 l 160 604 l 160 858 m 156 3 l 149 -28 q 210 -49 186 -28 q 235 -100 235 -69 q 201 -159 235 -136 q 115 -182 168 -182 q 68 -175 96 -182 l 68 -110 q 83 -112 75 -111 q 99 -112 90 -112 q 138 -107 124 -112 q 153 -90 153 -101 q 137 -72 153 -79 q 94 -64 121 -64 l 110 3 l 156 3 z "},"Ð":{"ha":264,"x_min":-7,"x_max":243,"o":"m 243 111 q 219 30 243 60 q 133 0 196 0 l 21 0 l 21 972 l 133 972 q 219 942 196 972 q 243 861 243 913 l 243 111 m 160 854 q 153 886 160 878 q 132 894 147 894 l 104 894 l 104 78 l 132 78 q 153 86 147 78 q 160 118 160 94 l 160 854 m 132 447 l -7 447 l -7 525 l 132 525 l 132 447 z "},"Đ":{"ha":264,"x_min":-7,"x_max":243,"o":"m 243 111 q 219 30 243 60 q 133 0 196 0 l 21 0 l 21 972 l 133 972 q 219 942 196 972 q 243 861 243 913 l 243 111 m 160 854 q 153 886 160 878 q 132 894 147 894 l 104 894 l 104 78 l 132 78 q 153 86 147 78 q 160 118 160 94 l 160 854 m 132 447 l -7 447 l -7 525 l 132 525 l 132 447 z "},"È":{"ha":176,"x_min":15,"x_max":167,"o":"m 160 894 l 104 894 l 104 538 l 153 538 l 153 460 l 104 460 l 104 78 l 167 78 l 167 0 l 21 0 l 21 972 l 160 972 l 160 894 m 15 1176 l 99 1176 l 117 1014 l 56 1014 l 15 1176 z "},"É":{"ha":176,"x_min":21,"x_max":167,"o":"m 160 894 l 104 894 l 104 538 l 153 538 l 153 460 l 104 460 l 104 78 l 167 78 l 167 0 l 21 0 l 21 972 l 160 972 l 160 894 m 56 1014 l 74 1176 l 157 1176 l 117 1014 l 56 1014 z "},"Ê":{"ha":176,"x_min":11,"x_max":167,"o":"m 160 894 l 104 894 l 104 538 l 153 538 l 153 460 l 104 460 l 104 78 l 167 78 l 167 0 l 21 0 l 21 972 l 160 972 l 160 894 m 11 1014 l 43 1176 l 126 1176 l 158 1014 l 103 1014 l 86 1107 l 83 1107 l 67 1014 l 11 1014 z "},"Ë":{"ha":176,"x_min":14,"x_max":167,"o":"m 160 894 l 104 894 l 104 538 l 153 538 l 153 460 l 104 460 l 104 78 l 167 78 l 167 0 l 21 0 l 21 972 l 160 972 l 160 894 m 14 1138 l 76 1138 l 76 1026 l 14 1026 l 14 1138 m 96 1138 l 158 1138 l 158 1026 l 96 1026 l 96 1138 z "},"Ì":{"ha":125,"x_min":-8,"x_max":104,"o":"m 104 0 l 21 0 l 21 972 l 104 972 l 104 0 m -8 1176 l 75 1176 l 93 1014 l 32 1014 l -8 1176 z "},"Í":{"ha":125,"x_min":21,"x_max":133,"o":"m 104 0 l 21 0 l 21 972 l 104 972 l 104 0 m 32 1014 l 50 1176 l 133 1176 l 93 1014 l 32 1014 z "},"Î":{"ha":125,"x_min":-12,"x_max":135,"o":"m 104 0 l 21 0 l 21 972 l 104 972 l 104 0 m -12 1014 l 19 1176 l 103 1176 l 135 1014 l 79 1014 l 63 1107 l 60 1107 l 43 1014 l -12 1014 z "},"Ï":{"ha":125,"x_min":-10,"x_max":135,"o":"m 104 0 l 21 0 l 21 972 l 104 972 l 104 0 m -10 1138 l 53 1138 l 53 1026 l -10 1026 l -10 1138 m 72 1138 l 135 1138 l 135 1026 l 72 1026 l 72 1138 z "},"Ł":{"ha":174,"x_min":-39,"x_max":164,"o":"m 104 972 l 104 78 l 164 78 l 164 0 l 21 0 l 21 972 l 104 972 m 163 485 l -7 414 l -39 485 l 132 556 l 163 485 z "},"Ñ":{"ha":314,"x_min":21,"x_max":293,"o":"m 293 0 l 179 0 l 85 813 l 82 813 l 94 479 l 99 0 l 21 0 l 21 972 l 135 972 l 229 164 l 232 164 l 219 482 l 215 972 l 293 972 l 293 0 m 247 1154 q 237 1060 247 1088 q 200 1033 226 1033 q 176 1039 188 1033 q 156 1051 165 1044 q 138 1063 147 1057 q 118 1068 129 1068 q 105 1061 108 1068 q 101 1035 101 1054 l 101 1033 l 68 1033 l 68 1036 q 78 1129 68 1103 q 111 1156 88 1156 q 135 1150 124 1156 q 156 1138 146 1144 q 176 1126 167 1132 q 196 1121 186 1121 q 214 1150 214 1121 l 214 1157 l 247 1157 l 247 1154 z "},"Ò":{"ha":264,"x_min":21,"x_max":243,"o":"m 243 103 q 214 22 243 51 q 133 -8 185 -8 q 51 22 82 -8 q 21 103 21 51 l 21 869 q 51 951 21 921 q 133 981 82 981 q 214 951 185 981 q 243 869 243 921 l 243 103 m 160 858 q 132 903 160 903 q 104 858 104 903 l 104 114 q 132 69 104 69 q 160 114 160 69 l 160 858 m 63 1176 l 146 1176 l 164 1014 l 103 1014 l 63 1176 z "},"Ó":{"ha":264,"x_min":21,"x_max":243,"o":"m 243 103 q 214 22 243 51 q 133 -8 185 -8 q 51 22 82 -8 q 21 103 21 51 l 21 869 q 51 951 21 921 q 133 981 82 981 q 214 951 185 981 q 243 869 243 921 l 243 103 m 160 858 q 132 903 160 903 q 104 858 104 903 l 104 114 q 132 69 104 69 q 160 114 160 69 l 160 858 m 103 1014 l 121 1176 l 204 1176 l 164 1014 l 103 1014 z "},"Ô":{"ha":264,"x_min":21,"x_max":243,"o":"m 243 103 q 214 22 243 51 q 133 -8 185 -8 q 51 22 82 -8 q 21 103 21 51 l 21 869 q 51 951 21 921 q 133 981 82 981 q 214 951 185 981 q 243 869 243 921 l 243 103 m 160 858 q 132 903 160 903 q 104 858 104 903 l 104 114 q 132 69 104 69 q 160 114 160 69 l 160 858 m 58 1014 l 90 1176 l 174 1176 l 206 1014 l 150 1014 l 133 1107 l 131 1107 l 114 1014 l 58 1014 z "},"Õ":{"ha":264,"x_min":21,"x_max":243,"o":"m 243 103 q 214 22 243 51 q 133 -8 185 -8 q 51 22 82 -8 q 21 103 21 51 l 21 869 q 51 951 21 921 q 133 981 82 981 q 214 951 185 981 q 243 869 243 921 l 243 103 m 160 858 q 132 903 160 903 q 104 858 104 903 l 104 114 q 132 69 104 69 q 160 114 160 69 l 160 858 m 224 1154 q 213 1060 224 1088 q 176 1033 203 1033 q 153 1039 164 1033 q 133 1051 142 1044 q 115 1063 124 1057 q 94 1068 106 1068 q 81 1061 85 1068 q 78 1035 78 1054 l 78 1033 l 44 1033 l 44 1036 q 54 1129 44 1103 q 88 1156 64 1156 q 111 1150 100 1156 q 133 1138 122 1144 q 153 1126 143 1132 q 172 1121 163 1121 q 190 1150 190 1121 l 190 1157 l 224 1157 l 224 1154 z "},"Ö":{"ha":264,"x_min":21,"x_max":243,"o":"m 243 103 q 214 22 243 51 q 133 -8 185 -8 q 51 22 82 -8 q 21 103 21 51 l 21 869 q 51 951 21 921 q 133 981 82 981 q 214 951 185 981 q 243 869 243 921 l 243 103 m 160 858 q 132 903 160 903 q 104 858 104 903 l 104 114 q 132 69 104 69 q 160 114 160 69 l 160 858 m 61 1138 l 124 1138 l 124 1026 l 61 1026 l 61 1138 m 143 1138 l 206 1138 l 206 1026 l 143 1026 l 143 1138 z "},"Š":{"ha":257,"x_min":18,"x_max":240,"o":"m 240 103 q 210 22 240 51 q 128 -8 179 -8 q 47 22 76 -8 q 18 103 18 51 l 18 342 l 101 342 l 101 114 q 129 69 101 69 q 157 114 157 69 l 157 299 q 137 403 157 360 q 92 490 117 447 q 41 589 64 536 q 18 718 18 642 l 18 869 q 49 951 18 921 q 131 981 79 981 q 211 951 182 981 q 240 869 240 921 l 240 674 l 157 674 l 157 858 q 129 903 157 903 q 101 858 101 903 l 101 718 q 122 613 101 657 q 167 525 142 568 q 217 426 194 479 q 240 299 240 374 l 240 103 m 218 1176 l 186 1014 l 103 1014 l 71 1176 l 126 1176 l 143 1083 l 146 1083 l 163 1176 l 218 1176 z "},"Ù":{"ha":264,"x_min":21,"x_max":243,"o":"m 243 103 q 214 22 243 51 q 133 -8 185 -8 q 51 22 82 -8 q 21 103 21 51 l 21 972 l 104 972 l 104 114 q 132 69 104 69 q 160 114 160 69 l 160 972 l 243 972 l 243 103 m 61 1176 l 144 1176 l 163 1014 l 101 1014 l 61 1176 z "},"Ú":{"ha":264,"x_min":21,"x_max":243,"o":"m 243 103 q 214 22 243 51 q 133 -8 185 -8 q 51 22 82 -8 q 21 103 21 51 l 21 972 l 104 972 l 104 114 q 132 69 104 69 q 160 114 160 69 l 160 972 l 243 972 l 243 103 m 101 1014 l 119 1176 l 203 1176 l 163 1014 l 101 1014 z "},"Û":{"ha":264,"x_min":21,"x_max":243,"o":"m 243 103 q 214 22 243 51 q 133 -8 185 -8 q 51 22 82 -8 q 21 103 21 51 l 21 972 l 104 972 l 104 114 q 132 69 104 69 q 160 114 160 69 l 160 972 l 243 972 l 243 103 m 57 1014 l 89 1176 l 172 1176 l 204 1014 l 149 1014 l 132 1107 l 129 1107 l 113 1014 l 57 1014 z "},"Ü":{"ha":264,"x_min":21,"x_max":243,"o":"m 243 103 q 214 22 243 51 q 133 -8 185 -8 q 51 22 82 -8 q 21 103 21 51 l 21 972 l 104 972 l 104 114 q 132 69 104 69 q 160 114 160 69 l 160 972 l 243 972 l 243 103 m 60 1138 l 122 1138 l 122 1026 l 60 1026 l 60 1138 m 142 1138 l 204 1138 l 204 1026 l 142 1026 l 142 1138 z "},"Ÿ":{"ha":242,"x_min":0,"x_max":242,"o":"m 163 319 l 163 0 l 79 0 l 79 319 l 0 972 l 86 972 l 114 638 l 119 499 l 122 499 l 128 638 l 156 972 l 242 972 l 163 319 m 49 1138 l 111 1138 l 111 1026 l 49 1026 l 49 1138 m 131 1138 l 193 1138 l 193 1026 l 131 1026 l 131 1138 z "},"Ý":{"ha":242,"x_min":0,"x_max":242,"o":"m 163 319 l 163 0 l 79 0 l 79 319 l 0 972 l 86 972 l 114 638 l 119 499 l 122 499 l 128 638 l 156 972 l 242 972 l 163 319 m 90 1014 l 108 1176 l 192 1176 l 151 1014 l 90 1014 z "},"Ž":{"ha":219,"x_min":10,"x_max":210,"o":"m 210 894 l 94 78 l 208 78 l 208 0 l 10 0 l 10 78 l 125 894 l 17 894 l 17 972 l 210 972 l 210 894 m 201 1176 l 169 1014 l 86 1014 l 54 1176 l 110 1176 l 126 1083 l 129 1083 l 146 1176 l 201 1176 z "},"à":{"ha":253,"x_min":21,"x_max":232,"o":"m 99 508 l 21 508 l 21 689 q 49 770 21 740 q 125 800 76 800 q 203 770 174 800 q 232 689 232 740 l 232 0 l 154 0 l 154 44 l 151 44 q 93 -8 136 -8 q 40 22 60 -8 q 21 103 21 51 l 21 292 q 24 350 21 326 q 41 392 28 374 q 81 428 54 411 q 154 464 107 444 l 154 683 q 126 728 154 728 q 99 683 99 728 l 99 508 m 154 392 q 122 372 133 381 q 106 351 111 363 q 99 325 100 340 q 99 286 99 310 l 99 108 q 126 64 99 64 q 154 108 154 64 l 154 392 m 54 996 l 138 996 l 156 833 l 94 833 l 54 996 z "},"á":{"ha":253,"x_min":21,"x_max":232,"o":"m 99 508 l 21 508 l 21 689 q 49 770 21 740 q 125 800 76 800 q 203 770 174 800 q 232 689 232 740 l 232 0 l 154 0 l 154 44 l 151 44 q 93 -8 136 -8 q 40 22 60 -8 q 21 103 21 51 l 21 292 q 24 350 21 326 q 41 392 28 374 q 81 428 54 411 q 154 464 107 444 l 154 683 q 126 728 154 728 q 99 683 99 728 l 99 508 m 154 392 q 122 372 133 381 q 106 351 111 363 q 99 325 100 340 q 99 286 99 310 l 99 108 q 126 64 99 64 q 154 108 154 64 l 154 392 m 94 833 l 113 996 l 196 996 l 156 833 l 94 833 z "},"â":{"ha":253,"x_min":21,"x_max":232,"o":"m 99 508 l 21 508 l 21 689 q 49 770 21 740 q 125 800 76 800 q 203 770 174 800 q 232 689 232 740 l 232 0 l 154 0 l 154 44 l 151 44 q 93 -8 136 -8 q 40 22 60 -8 q 21 103 21 51 l 21 292 q 24 350 21 326 q 41 392 28 374 q 81 428 54 411 q 154 464 107 444 l 154 683 q 126 728 154 728 q 99 683 99 728 l 99 508 m 154 392 q 122 372 133 381 q 106 351 111 363 q 99 325 100 340 q 99 286 99 310 l 99 108 q 126 64 99 64 q 154 108 154 64 l 154 392 m 50 833 l 82 996 l 165 996 l 197 833 l 142 833 l 125 926 l 122 926 l 106 833 l 50 833 z "},"ã":{"ha":253,"x_min":21,"x_max":232,"o":"m 99 508 l 21 508 l 21 689 q 49 770 21 740 q 125 800 76 800 q 203 770 174 800 q 232 689 232 740 l 232 0 l 154 0 l 154 44 l 151 44 q 93 -8 136 -8 q 40 22 60 -8 q 21 103 21 51 l 21 292 q 24 350 21 326 q 41 392 28 374 q 81 428 54 411 q 154 464 107 444 l 154 683 q 126 728 154 728 q 99 683 99 728 l 99 508 m 154 392 q 122 372 133 381 q 106 351 111 363 q 99 325 100 340 q 99 286 99 310 l 99 108 q 126 64 99 64 q 154 108 154 64 l 154 392 m 215 974 q 205 880 215 907 q 168 853 194 853 q 144 858 156 853 q 124 870 133 864 q 106 882 115 876 q 86 888 97 888 q 73 881 76 888 q 69 854 69 874 l 69 853 l 36 853 l 36 856 q 46 949 36 922 q 79 975 56 975 q 103 969 92 975 q 124 958 114 964 q 144 946 135 951 q 164 940 154 940 q 182 969 182 940 l 182 976 l 215 976 l 215 974 z "},"ä":{"ha":253,"x_min":21,"x_max":232,"o":"m 99 508 l 21 508 l 21 689 q 49 770 21 740 q 125 800 76 800 q 203 770 174 800 q 232 689 232 740 l 232 0 l 154 0 l 154 44 l 151 44 q 93 -8 136 -8 q 40 22 60 -8 q 21 103 21 51 l 21 292 q 24 350 21 326 q 41 392 28 374 q 81 428 54 411 q 154 464 107 444 l 154 683 q 126 728 154 728 q 99 683 99 728 l 99 508 m 154 392 q 122 372 133 381 q 106 351 111 363 q 99 325 100 340 q 99 286 99 310 l 99 108 q 126 64 99 64 q 154 108 154 64 l 154 392 m 53 957 l 115 957 l 115 846 l 53 846 l 53 957 m 135 957 l 197 957 l 197 846 l 135 846 l 135 957 z "},"å":{"ha":253,"x_min":21,"x_max":232,"o":"m 99 508 l 21 508 l 21 689 q 49 770 21 740 q 125 800 76 800 q 203 770 174 800 q 232 689 232 740 l 232 0 l 154 0 l 154 44 l 151 44 q 93 -8 136 -8 q 40 22 60 -8 q 21 103 21 51 l 21 292 q 24 350 21 326 q 41 392 28 374 q 81 428 54 411 q 154 464 107 444 l 154 683 q 126 728 154 728 q 99 683 99 728 l 99 508 m 154 392 q 122 372 133 381 q 106 351 111 363 q 99 325 100 340 q 99 286 99 310 l 99 108 q 126 64 99 64 q 154 108 154 64 l 154 392 m 40 915 q 125 997 40 997 q 187 976 165 997 q 208 914 208 954 q 125 832 208 832 q 40 915 40 832 m 94 915 q 125 886 94 886 q 154 914 154 886 q 125 943 154 943 q 94 915 94 943 z "},"ç":{"ha":253,"x_min":21,"x_max":240,"o":"m 154 683 q 126 728 154 728 q 99 683 99 728 l 99 108 q 126 64 99 64 q 154 108 154 64 l 154 338 l 232 338 l 232 103 q 204 22 232 51 q 128 -8 176 -8 q 50 22 79 -8 q 21 103 21 51 l 21 689 q 50 770 21 740 q 128 800 79 800 q 204 770 176 800 q 232 689 232 740 l 232 490 l 154 490 l 154 683 m 161 3 l 154 -28 q 216 -49 192 -28 q 240 -100 240 -69 q 207 -159 240 -136 q 121 -182 174 -182 q 74 -175 101 -182 l 74 -110 q 88 -112 81 -111 q 104 -112 96 -112 q 144 -107 129 -112 q 158 -90 158 -101 q 142 -72 158 -79 q 100 -64 126 -64 l 115 3 l 161 3 z "},"đ":{"ha":253,"x_min":21,"x_max":275,"o":"m 154 0 l 154 46 l 151 46 q 90 -8 136 -8 q 40 22 58 -8 q 21 103 21 51 l 21 689 q 40 770 21 740 q 90 800 58 800 q 151 746 136 800 l 154 746 l 154 1014 l 232 1014 l 232 0 l 154 0 m 99 108 q 126 64 99 64 q 154 108 154 64 l 154 683 q 126 728 154 728 q 99 683 99 728 l 99 108 m 275 846 l 108 846 l 108 924 l 275 924 l 275 846 z "},"è":{"ha":253,"x_min":21,"x_max":232,"o":"m 232 310 l 232 103 q 204 22 232 51 q 128 -8 176 -8 q 50 22 79 -8 q 21 103 21 51 l 21 689 q 50 770 21 740 q 128 800 79 800 q 204 770 176 800 q 232 689 232 740 l 232 383 l 99 383 l 99 108 q 126 64 99 64 q 154 108 154 64 l 154 310 l 232 310 m 154 683 q 126 728 154 728 q 99 683 99 728 l 99 456 l 154 456 l 154 683 m 57 996 l 140 996 l 158 833 l 97 833 l 57 996 z "},"é":{"ha":253,"x_min":21,"x_max":232,"o":"m 232 310 l 232 103 q 204 22 232 51 q 128 -8 176 -8 q 50 22 79 -8 q 21 103 21 51 l 21 689 q 50 770 21 740 q 128 800 79 800 q 204 770 176 800 q 232 689 232 740 l 232 383 l 99 383 l 99 108 q 126 64 99 64 q 154 108 154 64 l 154 310 l 232 310 m 154 683 q 126 728 154 728 q 99 683 99 728 l 99 456 l 154 456 l 154 683 m 97 833 l 115 996 l 199 996 l 158 833 l 97 833 z "},"ê":{"ha":253,"x_min":21,"x_max":232,"o":"m 232 310 l 232 103 q 204 22 232 51 q 128 -8 176 -8 q 50 22 79 -8 q 21 103 21 51 l 21 689 q 50 770 21 740 q 128 800 79 800 q 204 770 176 800 q 232 689 232 740 l 232 383 l 99 383 l 99 108 q 126 64 99 64 q 154 108 154 64 l 154 310 l 232 310 m 154 683 q 126 728 154 728 q 99 683 99 728 l 99 456 l 154 456 l 154 683 m 53 833 l 85 996 l 168 996 l 200 833 l 144 833 l 128 926 l 125 926 l 108 833 l 53 833 z "},"ë":{"ha":253,"x_min":21,"x_max":232,"o":"m 232 310 l 232 103 q 204 22 232 51 q 128 -8 176 -8 q 50 22 79 -8 q 21 103 21 51 l 21 689 q 50 770 21 740 q 128 800 79 800 q 204 770 176 800 q 232 689 232 740 l 232 383 l 99 383 l 99 108 q 126 64 99 64 q 154 108 154 64 l 154 310 l 232 310 m 154 683 q 126 728 154 728 q 99 683 99 728 l 99 456 l 154 456 l 154 683 m 56 957 l 118 957 l 118 846 l 56 846 l 56 957 m 138 957 l 200 957 l 200 846 l 138 846 l 138 957 z "},"ì":{"ha":119,"x_min":-11,"x_max":99,"o":"m 21 792 l 99 792 l 99 0 l 21 0 l 21 792 m -11 996 l 72 996 l 90 833 l 29 833 l -11 996 z "},"í":{"ha":119,"x_min":21,"x_max":131,"o":"m 21 792 l 99 792 l 99 0 l 21 0 l 21 792 m 29 833 l 47 996 l 131 996 l 90 833 l 29 833 z "},"î":{"ha":119,"x_min":-15,"x_max":132,"o":"m 21 792 l 99 792 l 99 0 l 21 0 l 21 792 m -15 833 l 17 996 l 100 996 l 132 833 l 76 833 l 60 926 l 57 926 l 40 833 l -15 833 z "},"ï":{"ha":119,"x_min":-12,"x_max":132,"o":"m 21 792 l 99 792 l 99 0 l 21 0 l 21 792 m -12 957 l 50 957 l 50 846 l -12 846 l -12 957 m 69 957 l 132 957 l 132 846 l 69 846 l 69 957 z "},"ł":{"ha":119,"x_min":-43,"x_max":158,"o":"m 21 1014 l 99 1014 l 99 0 l 21 0 l 21 1014 m 158 504 l -11 433 l -43 504 l 128 575 l 158 504 z "},"ñ":{"ha":253,"x_min":21,"x_max":232,"o":"m 154 683 q 126 728 154 728 q 99 683 99 728 l 99 0 l 21 0 l 21 792 l 99 792 l 99 746 l 101 746 q 163 800 117 800 q 213 770 194 800 q 232 689 232 740 l 232 0 l 154 0 l 154 683 m 213 974 q 202 880 213 907 q 165 853 192 853 q 142 858 153 853 q 122 870 131 864 q 103 882 113 876 q 83 888 94 888 q 70 881 74 888 q 67 854 67 874 l 67 853 l 33 853 l 33 856 q 43 949 33 922 q 76 975 53 975 q 100 969 89 975 q 122 958 111 964 q 142 946 132 951 q 161 940 151 940 q 179 969 179 940 l 179 976 l 213 976 l 213 974 z "},"ò":{"ha":253,"x_min":21,"x_max":232,"o":"m 232 103 q 204 22 232 51 q 128 -8 176 -8 q 50 22 79 -8 q 21 103 21 51 l 21 689 q 50 770 21 740 q 128 800 79 800 q 204 770 176 800 q 232 689 232 740 l 232 103 m 154 683 q 126 728 154 728 q 99 683 99 728 l 99 108 q 126 64 99 64 q 154 108 154 64 l 154 683 m 57 996 l 140 996 l 158 833 l 97 833 l 57 996 z "},"ó":{"ha":253,"x_min":21,"x_max":232,"o":"m 232 103 q 204 22 232 51 q 128 -8 176 -8 q 50 22 79 -8 q 21 103 21 51 l 21 689 q 50 770 21 740 q 128 800 79 800 q 204 770 176 800 q 232 689 232 740 l 232 103 m 154 683 q 126 728 154 728 q 99 683 99 728 l 99 108 q 126 64 99 64 q 154 108 154 64 l 154 683 m 97 833 l 115 996 l 199 996 l 158 833 l 97 833 z "},"ô":{"ha":253,"x_min":21,"x_max":232,"o":"m 232 103 q 204 22 232 51 q 128 -8 176 -8 q 50 22 79 -8 q 21 103 21 51 l 21 689 q 50 770 21 740 q 128 800 79 800 q 204 770 176 800 q 232 689 232 740 l 232 103 m 154 683 q 126 728 154 728 q 99 683 99 728 l 99 108 q 126 64 99 64 q 154 108 154 64 l 154 683 m 53 833 l 85 996 l 168 996 l 200 833 l 144 833 l 128 926 l 125 926 l 108 833 l 53 833 z "},"õ":{"ha":253,"x_min":21,"x_max":232,"o":"m 232 103 q 204 22 232 51 q 128 -8 176 -8 q 50 22 79 -8 q 21 103 21 51 l 21 689 q 50 770 21 740 q 128 800 79 800 q 204 770 176 800 q 232 689 232 740 l 232 103 m 154 683 q 126 728 154 728 q 99 683 99 728 l 99 108 q 126 64 99 64 q 154 108 154 64 l 154 683 m 218 974 q 208 880 218 907 q 171 853 197 853 q 147 858 158 853 q 127 870 136 864 q 109 882 118 876 q 89 888 100 888 q 76 881 79 888 q 72 854 72 874 l 72 853 l 39 853 l 39 856 q 49 949 39 922 q 82 975 58 975 q 106 969 94 975 q 127 958 117 964 q 147 946 138 951 q 167 940 157 940 q 185 969 185 940 l 185 976 l 218 976 l 218 974 z "},"ö":{"ha":253,"x_min":21,"x_max":232,"o":"m 232 103 q 204 22 232 51 q 128 -8 176 -8 q 50 22 79 -8 q 21 103 21 51 l 21 689 q 50 770 21 740 q 128 800 79 800 q 204 770 176 800 q 232 689 232 740 l 232 103 m 154 683 q 126 728 154 728 q 99 683 99 728 l 99 108 q 126 64 99 64 q 154 108 154 64 l 154 683 m 56 957 l 118 957 l 118 846 l 56 846 l 56 957 m 138 957 l 200 957 l 200 846 l 138 846 l 138 957 z "},"š":{"ha":244,"x_min":17,"x_max":228,"o":"m 228 103 q 199 22 228 51 q 121 -8 169 -8 q 44 22 72 -8 q 17 103 17 51 l 17 279 l 94 279 l 94 108 q 122 64 94 64 q 150 108 150 64 l 150 261 q 131 333 150 301 q 89 397 113 365 q 40 474 63 433 q 17 569 17 514 l 17 689 q 46 770 17 740 q 124 800 75 800 q 200 770 172 800 q 228 689 228 740 l 228 550 l 150 550 l 150 683 q 122 728 150 728 q 94 683 94 728 l 94 569 q 113 497 94 529 q 156 433 132 465 q 205 356 182 397 q 228 261 228 314 l 228 103 m 210 996 l 178 833 l 94 833 l 63 996 l 118 996 l 135 903 l 138 903 l 154 996 l 210 996 z "},"ù":{"ha":253,"x_min":21,"x_max":232,"o":"m 99 108 q 126 64 99 64 q 154 108 154 64 l 154 792 l 232 792 l 232 0 l 154 0 l 154 46 l 151 46 q 90 -8 136 -8 q 40 22 58 -8 q 21 103 21 51 l 21 792 l 99 792 l 99 108 m 56 996 l 139 996 l 157 833 l 96 833 l 56 996 z "},"ú":{"ha":253,"x_min":21,"x_max":232,"o":"m 99 108 q 126 64 99 64 q 154 108 154 64 l 154 792 l 232 792 l 232 0 l 154 0 l 154 46 l 151 46 q 90 -8 136 -8 q 40 22 58 -8 q 21 103 21 51 l 21 792 l 99 792 l 99 108 m 96 833 l 114 996 l 197 996 l 157 833 l 96 833 z "},"û":{"ha":253,"x_min":21,"x_max":232,"o":"m 99 108 q 126 64 99 64 q 154 108 154 64 l 154 792 l 232 792 l 232 0 l 154 0 l 154 46 l 151 46 q 90 -8 136 -8 q 40 22 58 -8 q 21 103 21 51 l 21 792 l 99 792 l 99 108 m 51 833 l 83 996 l 167 996 l 199 833 l 143 833 l 126 926 l 124 926 l 107 833 l 51 833 z "},"ü":{"ha":253,"x_min":21,"x_max":232,"o":"m 99 108 q 126 64 99 64 q 154 108 154 64 l 154 792 l 232 792 l 232 0 l 154 0 l 154 46 l 151 46 q 90 -8 136 -8 q 40 22 58 -8 q 21 103 21 51 l 21 792 l 99 792 l 99 108 m 54 957 l 117 957 l 117 846 l 54 846 l 54 957 m 136 957 l 199 957 l 199 846 l 136 846 l 136 957 z "},"ý":{"ha":243,"x_min":4,"x_max":239,"o":"m 118 365 l 125 171 l 128 171 l 133 365 l 167 792 l 239 792 l 142 -222 l 68 -222 l 90 0 l 4 792 l 86 792 l 118 365 m 92 833 l 110 996 l 193 996 l 153 833 l 92 833 z "},"ÿ":{"ha":243,"x_min":4,"x_max":239,"o":"m 118 365 l 125 171 l 128 171 l 133 365 l 167 792 l 239 792 l 142 -222 l 68 -222 l 90 0 l 4 792 l 86 792 l 118 365 m 50 957 l 113 957 l 113 846 l 50 846 l 50 957 m 132 957 l 194 957 l 194 846 l 132 846 l 132 957 z "},"ž":{"ha":214,"x_min":10,"x_max":204,"o":"m 204 719 l 89 72 l 203 72 l 203 0 l 10 0 l 10 72 l 125 719 l 17 719 l 17 792 l 204 792 l 204 719 m 194 996 l 163 833 l 79 833 l 47 996 l 103 996 l 119 903 l 122 903 l 139 996 l 194 996 z "},"Ā":{"ha":246,"x_min":0,"x_max":246,"o":"m 246 0 l 158 0 l 144 256 l 92 256 l 78 0 l 0 0 l 63 972 l 174 972 l 246 0 m 140 333 l 126 610 l 119 849 l 117 849 l 111 610 l 96 333 l 140 333 m 193 1032 l 40 1032 l 40 1115 l 193 1115 l 193 1032 z "},"ā":{"ha":253,"x_min":21,"x_max":232,"o":"m 99 508 l 21 508 l 21 689 q 49 770 21 740 q 125 800 76 800 q 203 770 174 800 q 232 689 232 740 l 232 0 l 154 0 l 154 44 l 151 44 q 93 -8 136 -8 q 40 22 60 -8 q 21 103 21 51 l 21 292 q 24 350 21 326 q 41 392 28 374 q 81 428 54 411 q 154 464 107 444 l 154 683 q 126 728 154 728 q 99 683 99 728 l 99 508 m 154 392 q 122 372 133 381 q 106 351 111 363 q 99 325 100 340 q 99 286 99 310 l 99 108 q 126 64 99 64 q 154 108 154 64 l 154 392 m 200 851 l 47 851 l 47 935 l 200 935 l 200 851 z "},"Ă":{"ha":246,"x_min":0,"x_max":246,"o":"m 246 0 l 158 0 l 144 256 l 92 256 l 78 0 l 0 0 l 63 972 l 174 972 l 246 0 m 140 333 l 126 610 l 119 849 l 117 849 l 111 610 l 96 333 l 140 333 m 83 1160 q 118 1108 83 1108 q 153 1160 153 1108 l 219 1160 q 193 1060 219 1090 q 118 1031 167 1031 q 43 1060 69 1031 q 17 1160 17 1090 l 83 1160 z "},"ă":{"ha":253,"x_min":21,"x_max":232,"o":"m 99 508 l 21 508 l 21 689 q 49 770 21 740 q 125 800 76 800 q 203 770 174 800 q 232 689 232 740 l 232 0 l 154 0 l 154 44 l 151 44 q 93 -8 136 -8 q 40 22 60 -8 q 21 103 21 51 l 21 292 q 24 350 21 326 q 41 392 28 374 q 81 428 54 411 q 154 464 107 444 l 154 683 q 126 728 154 728 q 99 683 99 728 l 99 508 m 154 392 q 122 372 133 381 q 106 351 111 363 q 99 325 100 340 q 99 286 99 310 l 99 108 q 126 64 99 64 q 154 108 154 64 l 154 392 m 90 979 q 125 928 90 928 q 160 979 160 928 l 226 979 q 200 880 226 910 q 125 850 174 850 q 50 880 76 850 q 24 979 24 910 l 90 979 z "},"Ą":{"ha":246,"x_min":0,"x_max":246,"o":"m 246 0 l 158 0 l 144 256 l 92 256 l 78 0 l 0 0 l 63 972 l 174 972 l 246 0 m 140 333 l 126 610 l 119 849 l 117 849 l 111 610 l 96 333 l 140 333 m 244 0 q 214 -11 226 0 q 201 -37 201 -22 q 233 -67 201 -67 q 244 -65 242 -67 l 244 -150 q 217 -153 233 -153 q 160 -133 182 -153 q 139 -81 139 -112 q 169 -17 139 -42 q 244 8 200 8 l 244 0 z "},"ą":{"ha":253,"x_min":21,"x_max":232,"o":"m 99 508 l 21 508 l 21 689 q 49 770 21 740 q 125 800 76 800 q 203 770 174 800 q 232 689 232 740 l 232 0 l 154 0 l 154 44 l 151 44 q 93 -8 136 -8 q 40 22 60 -8 q 21 103 21 51 l 21 292 q 24 350 21 326 q 41 392 28 374 q 81 428 54 411 q 154 464 107 444 l 154 683 q 126 728 154 728 q 99 683 99 728 l 99 508 m 154 392 q 122 372 133 381 q 106 351 111 363 q 99 325 100 340 q 99 286 99 310 l 99 108 q 126 64 99 64 q 154 108 154 64 l 154 392 m 231 0 q 200 -11 213 0 q 188 -37 188 -22 q 219 -67 188 -67 q 231 -65 228 -67 l 231 -150 q 203 -153 219 -153 q 147 -133 168 -153 q 125 -81 125 -112 q 156 -17 125 -42 q 231 8 186 8 l 231 0 z "},"Ć":{"ha":264,"x_min":21,"x_max":243,"o":"m 160 858 q 132 903 160 903 q 104 858 104 903 l 104 114 q 132 69 104 69 q 160 114 160 69 l 160 411 l 243 411 l 243 103 q 214 22 243 51 q 133 -8 185 -8 q 51 22 82 -8 q 21 103 21 51 l 21 869 q 51 951 21 921 q 133 981 82 981 q 214 951 185 981 q 243 869 243 921 l 243 604 l 160 604 l 160 858 m 103 1014 l 121 1176 l 204 1176 l 164 1014 l 103 1014 z "},"ć":{"ha":253,"x_min":21,"x_max":232,"o":"m 154 683 q 126 728 154 728 q 99 683 99 728 l 99 108 q 126 64 99 64 q 154 108 154 64 l 154 338 l 232 338 l 232 103 q 204 22 232 51 q 128 -8 176 -8 q 50 22 79 -8 q 21 103 21 51 l 21 689 q 50 770 21 740 q 128 800 79 800 q 204 770 176 800 q 232 689 232 740 l 232 490 l 154 490 l 154 683 m 97 833 l 115 996 l 199 996 l 158 833 l 97 833 z "},"Ĉ":{"ha":264,"x_min":21,"x_max":243,"o":"m 160 858 q 132 903 160 903 q 104 858 104 903 l 104 114 q 132 69 104 69 q 160 114 160 69 l 160 411 l 243 411 l 243 103 q 214 22 243 51 q 133 -8 185 -8 q 51 22 82 -8 q 21 103 21 51 l 21 869 q 51 951 21 921 q 133 981 82 981 q 214 951 185 981 q 243 869 243 921 l 243 604 l 160 604 l 160 858 m 58 1014 l 90 1176 l 174 1176 l 206 1014 l 150 1014 l 133 1107 l 131 1107 l 114 1014 l 58 1014 z "},"ĉ":{"ha":253,"x_min":21,"x_max":232,"o":"m 154 683 q 126 728 154 728 q 99 683 99 728 l 99 108 q 126 64 99 64 q 154 108 154 64 l 154 338 l 232 338 l 232 103 q 204 22 232 51 q 128 -8 176 -8 q 50 22 79 -8 q 21 103 21 51 l 21 689 q 50 770 21 740 q 128 800 79 800 q 204 770 176 800 q 232 689 232 740 l 232 490 l 154 490 l 154 683 m 53 833 l 85 996 l 168 996 l 200 833 l 144 833 l 128 926 l 125 926 l 108 833 l 53 833 z "},"Ċ":{"ha":264,"x_min":21,"x_max":243,"o":"m 160 858 q 132 903 160 903 q 104 858 104 903 l 104 114 q 132 69 104 69 q 160 114 160 69 l 160 411 l 243 411 l 243 103 q 214 22 243 51 q 133 -8 185 -8 q 51 22 82 -8 q 21 103 21 51 l 21 869 q 51 951 21 921 q 133 981 82 981 q 214 951 185 981 q 243 869 243 921 l 243 604 l 160 604 l 160 858 m 92 1138 l 175 1138 l 175 1026 l 92 1026 l 92 1138 z "},"ċ":{"ha":253,"x_min":21,"x_max":232,"o":"m 154 683 q 126 728 154 728 q 99 683 99 728 l 99 108 q 126 64 99 64 q 154 108 154 64 l 154 338 l 232 338 l 232 103 q 204 22 232 51 q 128 -8 176 -8 q 50 22 79 -8 q 21 103 21 51 l 21 689 q 50 770 21 740 q 128 800 79 800 q 204 770 176 800 q 232 689 232 740 l 232 490 l 154 490 l 154 683 m 86 957 l 169 957 l 169 846 l 86 846 l 86 957 z "},"Č":{"ha":264,"x_min":21,"x_max":243,"o":"m 160 858 q 132 903 160 903 q 104 858 104 903 l 104 114 q 132 69 104 69 q 160 114 160 69 l 160 411 l 243 411 l 243 103 q 214 22 243 51 q 133 -8 185 -8 q 51 22 82 -8 q 21 103 21 51 l 21 869 q 51 951 21 921 q 133 981 82 981 q 214 951 185 981 q 243 869 243 921 l 243 604 l 160 604 l 160 858 m 221 1176 l 189 1014 l 106 1014 l 74 1176 l 129 1176 l 146 1083 l 149 1083 l 165 1176 l 221 1176 z "},"č":{"ha":253,"x_min":21,"x_max":232,"o":"m 154 683 q 126 728 154 728 q 99 683 99 728 l 99 108 q 126 64 99 64 q 154 108 154 64 l 154 338 l 232 338 l 232 103 q 204 22 232 51 q 128 -8 176 -8 q 50 22 79 -8 q 21 103 21 51 l 21 689 q 50 770 21 740 q 128 800 79 800 q 204 770 176 800 q 232 689 232 740 l 232 490 l 154 490 l 154 683 m 215 996 l 183 833 l 100 833 l 68 996 l 124 996 l 140 903 l 143 903 l 160 996 l 215 996 z "},"Ď":{"ha":264,"x_min":21,"x_max":243,"o":"m 243 111 q 219 30 243 60 q 133 0 196 0 l 21 0 l 21 972 l 133 972 q 219 942 196 972 q 243 861 243 913 l 243 111 m 160 854 q 153 886 160 878 q 132 894 147 894 l 104 894 l 104 78 l 132 78 q 153 86 147 78 q 160 118 160 94 l 160 854 m 206 1176 l 174 1014 l 90 1014 l 58 1176 l 114 1176 l 131 1083 l 133 1083 l 150 1176 l 206 1176 z "},"ď":{"ha":322,"x_min":21,"x_max":336,"o":"m 154 0 l 154 46 l 151 46 q 90 -8 136 -8 q 40 22 58 -8 q 21 103 21 51 l 21 689 q 40 770 21 740 q 90 800 58 800 q 151 746 136 800 l 154 746 l 154 1014 l 232 1014 l 232 0 l 154 0 m 99 108 q 126 64 99 64 q 154 108 154 64 l 154 683 q 126 728 154 728 q 99 683 99 728 l 99 108 m 260 1014 l 336 1014 l 310 879 l 251 879 l 260 1014 z "},"Ē":{"ha":176,"x_min":8,"x_max":167,"o":"m 160 894 l 104 894 l 104 538 l 153 538 l 153 460 l 104 460 l 104 78 l 167 78 l 167 0 l 21 0 l 21 972 l 160 972 l 160 894 m 161 1032 l 8 1032 l 8 1115 l 161 1115 l 161 1032 z "},"ē":{"ha":253,"x_min":21,"x_max":232,"o":"m 232 310 l 232 103 q 204 22 232 51 q 128 -8 176 -8 q 50 22 79 -8 q 21 103 21 51 l 21 689 q 50 770 21 740 q 128 800 79 800 q 204 770 176 800 q 232 689 232 740 l 232 383 l 99 383 l 99 108 q 126 64 99 64 q 154 108 154 64 l 154 310 l 232 310 m 154 683 q 126 728 154 728 q 99 683 99 728 l 99 456 l 154 456 l 154 683 m 203 851 l 50 851 l 50 935 l 203 935 l 203 851 z "},"Ĕ":{"ha":176,"x_min":-15,"x_max":188,"o":"m 160 894 l 104 894 l 104 538 l 153 538 l 153 460 l 104 460 l 104 78 l 167 78 l 167 0 l 21 0 l 21 972 l 160 972 l 160 894 m 51 1160 q 86 1108 51 1108 q 121 1160 121 1108 l 188 1160 q 161 1060 188 1090 q 86 1031 135 1031 q 11 1060 38 1031 q -15 1160 -15 1090 l 51 1160 z "},"ĕ":{"ha":253,"x_min":21,"x_max":232,"o":"m 232 310 l 232 103 q 204 22 232 51 q 128 -8 176 -8 q 50 22 79 -8 q 21 103 21 51 l 21 689 q 50 770 21 740 q 128 800 79 800 q 204 770 176 800 q 232 689 232 740 l 232 383 l 99 383 l 99 108 q 126 64 99 64 q 154 108 154 64 l 154 310 l 232 310 m 154 683 q 126 728 154 728 q 99 683 99 728 l 99 456 l 154 456 l 154 683 m 93 979 q 128 928 93 928 q 163 979 163 928 l 229 979 q 203 880 229 910 q 128 850 176 850 q 53 880 79 850 q 26 979 26 910 l 93 979 z "},"Ė":{"ha":176,"x_min":21,"x_max":167,"o":"m 160 894 l 104 894 l 104 538 l 153 538 l 153 460 l 104 460 l 104 78 l 167 78 l 167 0 l 21 0 l 21 972 l 160 972 l 160 894 m 44 1138 l 128 1138 l 128 1026 l 44 1026 l 44 1138 z "},"ė":{"ha":253,"x_min":21,"x_max":232,"o":"m 232 310 l 232 103 q 204 22 232 51 q 128 -8 176 -8 q 50 22 79 -8 q 21 103 21 51 l 21 689 q 50 770 21 740 q 128 800 79 800 q 204 770 176 800 q 232 689 232 740 l 232 383 l 99 383 l 99 108 q 126 64 99 64 q 154 108 154 64 l 154 310 l 232 310 m 154 683 q 126 728 154 728 q 99 683 99 728 l 99 456 l 154 456 l 154 683 m 86 957 l 169 957 l 169 846 l 86 846 l 86 957 z "},"Ę":{"ha":176,"x_min":21,"x_max":167,"o":"m 160 894 l 104 894 l 104 538 l 153 538 l 153 460 l 104 460 l 104 78 l 167 78 l 167 0 l 21 0 l 21 972 l 160 972 l 160 894 m 165 0 q 135 -11 147 0 q 122 -37 122 -22 q 154 -67 122 -67 q 165 -65 163 -67 l 165 -150 q 138 -153 154 -153 q 81 -133 103 -153 q 60 -81 60 -112 q 90 -17 60 -42 q 165 8 121 8 l 165 0 z "},"ę":{"ha":253,"x_min":21,"x_max":232,"o":"m 232 310 l 232 103 q 204 22 232 51 q 128 -8 176 -8 q 50 22 79 -8 q 21 103 21 51 l 21 689 q 50 770 21 740 q 128 800 79 800 q 204 770 176 800 q 232 689 232 740 l 232 383 l 99 383 l 99 108 q 126 64 99 64 q 154 108 154 64 l 154 310 l 232 310 m 154 683 q 126 728 154 728 q 99 683 99 728 l 99 456 l 154 456 l 154 683 m 165 -1 q 142 -15 151 -4 q 133 -37 133 -25 q 165 -67 133 -67 q 176 -65 174 -67 l 176 -150 q 149 -153 165 -153 q 92 -133 114 -153 q 71 -81 71 -112 q 97 -20 71 -44 q 164 8 124 4 l 165 -1 z "},"Ě":{"ha":176,"x_min":21,"x_max":167,"o":"m 160 894 l 104 894 l 104 538 l 153 538 l 153 460 l 104 460 l 104 78 l 167 78 l 167 0 l 21 0 l 21 972 l 160 972 l 160 894 m 174 1176 l 142 1014 l 58 1014 l 26 1176 l 82 1176 l 99 1083 l 101 1083 l 118 1176 l 174 1176 z "},"ě":{"ha":253,"x_min":21,"x_max":232,"o":"m 232 310 l 232 103 q 204 22 232 51 q 128 -8 176 -8 q 50 22 79 -8 q 21 103 21 51 l 21 689 q 50 770 21 740 q 128 800 79 800 q 204 770 176 800 q 232 689 232 740 l 232 383 l 99 383 l 99 108 q 126 64 99 64 q 154 108 154 64 l 154 310 l 232 310 m 154 683 q 126 728 154 728 q 99 683 99 728 l 99 456 l 154 456 l 154 683 m 215 996 l 183 833 l 100 833 l 68 996 l 124 996 l 140 903 l 143 903 l 160 996 l 215 996 z "},"Ĝ":{"ha":264,"x_min":21,"x_max":243,"o":"m 243 513 l 243 0 l 160 0 l 160 56 l 157 56 q 94 -8 142 -8 q 41 22 61 -8 q 21 103 21 51 l 21 869 q 51 951 21 921 q 133 981 82 981 q 214 951 185 981 q 243 869 243 921 l 243 604 l 160 604 l 160 858 q 132 903 160 903 q 104 858 104 903 l 104 114 q 132 69 104 69 q 160 119 160 69 l 160 435 l 132 435 l 132 513 l 243 513 m 58 1014 l 90 1176 l 174 1176 l 206 1014 l 150 1014 l 133 1107 l 131 1107 l 114 1014 l 58 1014 z "},"ĝ":{"ha":253,"x_min":21,"x_max":232,"o":"m 232 -119 q 203 -201 232 -171 q 125 -231 174 -231 q 49 -201 76 -231 q 21 -119 21 -171 l 21 -36 l 99 -36 l 99 -114 q 126 -158 99 -158 q 154 -114 154 -158 l 154 46 l 151 46 q 90 -8 136 -8 q 40 22 58 -8 q 21 103 21 51 l 21 689 q 40 771 21 742 q 90 800 58 800 q 151 747 136 800 l 154 747 l 154 792 l 232 792 l 232 -119 m 99 108 q 126 64 99 64 q 154 108 154 64 l 154 683 q 126 728 154 728 q 99 683 99 728 l 99 108 m 64 833 l 96 996 l 179 996 l 211 833 l 156 833 l 139 926 l 136 926 l 119 833 l 64 833 z "},"Ğ":{"ha":264,"x_min":21,"x_max":243,"o":"m 243 513 l 243 0 l 160 0 l 160 56 l 157 56 q 94 -8 142 -8 q 41 22 61 -8 q 21 103 21 51 l 21 869 q 51 951 21 921 q 133 981 82 981 q 214 951 185 981 q 243 869 243 921 l 243 604 l 160 604 l 160 858 q 132 903 160 903 q 104 858 104 903 l 104 114 q 132 69 104 69 q 160 119 160 69 l 160 435 l 132 435 l 132 513 l 243 513 m 99 1160 q 133 1108 99 1108 q 168 1160 168 1108 l 235 1160 q 208 1060 235 1090 q 133 1031 182 1031 q 58 1060 85 1031 q 32 1160 32 1090 l 99 1160 z "},"ğ":{"ha":253,"x_min":21,"x_max":240,"o":"m 232 -119 q 203 -201 232 -171 q 125 -231 174 -231 q 49 -201 76 -231 q 21 -119 21 -171 l 21 -36 l 99 -36 l 99 -114 q 126 -158 99 -158 q 154 -114 154 -158 l 154 46 l 151 46 q 90 -8 136 -8 q 40 22 58 -8 q 21 103 21 51 l 21 689 q 40 771 21 742 q 90 800 58 800 q 151 747 136 800 l 154 747 l 154 792 l 232 792 l 232 -119 m 99 108 q 126 64 99 64 q 154 108 154 64 l 154 683 q 126 728 154 728 q 99 683 99 728 l 99 108 m 104 979 q 139 928 104 928 q 174 979 174 928 l 240 979 q 214 880 240 910 q 139 850 188 850 q 64 880 90 850 q 38 979 38 910 l 104 979 z "},"Ġ":{"ha":264,"x_min":21,"x_max":243,"o":"m 243 513 l 243 0 l 160 0 l 160 56 l 157 56 q 94 -8 142 -8 q 41 22 61 -8 q 21 103 21 51 l 21 869 q 51 951 21 921 q 133 981 82 981 q 214 951 185 981 q 243 869 243 921 l 243 604 l 160 604 l 160 858 q 132 903 160 903 q 104 858 104 903 l 104 114 q 132 69 104 69 q 160 119 160 69 l 160 435 l 132 435 l 132 513 l 243 513 m 92 1138 l 175 1138 l 175 1026 l 92 1026 l 92 1138 z "},"ġ":{"ha":253,"x_min":21,"x_max":232,"o":"m 232 -119 q 203 -201 232 -171 q 125 -231 174 -231 q 49 -201 76 -231 q 21 -119 21 -171 l 21 -36 l 99 -36 l 99 -114 q 126 -158 99 -158 q 154 -114 154 -158 l 154 46 l 151 46 q 90 -8 136 -8 q 40 22 58 -8 q 21 103 21 51 l 21 689 q 40 771 21 742 q 90 800 58 800 q 151 747 136 800 l 154 747 l 154 792 l 232 792 l 232 -119 m 99 108 q 126 64 99 64 q 154 108 154 64 l 154 683 q 126 728 154 728 q 99 683 99 728 l 99 108 m 97 957 l 181 957 l 181 846 l 97 846 l 97 957 z "},"Ģ":{"ha":264,"x_min":21,"x_max":243,"o":"m 243 513 l 243 0 l 160 0 l 160 56 l 157 56 q 94 -8 142 -8 q 41 22 61 -8 q 21 103 21 51 l 21 869 q 51 951 21 921 q 133 981 82 981 q 214 951 185 981 q 243 869 243 921 l 243 604 l 160 604 l 160 858 q 132 903 160 903 q 104 858 104 903 l 104 114 q 132 69 104 69 q 160 119 160 69 l 160 435 l 132 435 l 132 513 l 243 513 m 94 -28 l 171 -28 l 171 -139 l 156 -214 l 121 -214 l 136 -139 l 94 -139 l 94 -28 z "},"ģ":{"ha":253,"x_min":21,"x_max":232,"o":"m 232 -119 q 203 -201 232 -171 q 125 -231 174 -231 q 49 -201 76 -231 q 21 -119 21 -171 l 21 -36 l 99 -36 l 99 -114 q 126 -158 99 -158 q 154 -114 154 -158 l 154 46 l 151 46 q 90 -8 136 -8 q 40 22 58 -8 q 21 103 21 51 l 21 689 q 40 771 21 742 q 90 800 58 800 q 151 747 136 800 l 154 747 l 154 792 l 232 792 l 232 -119 m 99 108 q 126 64 99 64 q 154 108 154 64 l 154 683 q 126 728 154 728 q 99 683 99 728 l 99 108 z "},"Ĥ":{"ha":264,"x_min":21,"x_max":243,"o":"m 243 0 l 160 0 l 160 446 l 104 446 l 104 0 l 21 0 l 21 972 l 104 972 l 104 524 l 160 524 l 160 972 l 243 972 l 243 0 m 57 1014 l 89 1176 l 172 1176 l 204 1014 l 149 1014 l 132 1107 l 129 1107 l 113 1014 l 57 1014 z "},"ĥ":{"ha":253,"x_min":-15,"x_max":232,"o":"m 154 683 q 126 728 154 728 q 99 683 99 728 l 99 0 l 21 0 l 21 1014 l 99 1014 l 99 746 l 101 746 q 163 800 117 800 q 213 770 194 800 q 232 689 232 740 l 232 0 l 154 0 l 154 683 m -15 1056 l 17 1218 l 100 1218 l 132 1056 l 76 1056 l 60 1149 l 57 1149 l 40 1056 l -15 1056 z "},"Ħ":{"ha":264,"x_min":-7,"x_max":271,"o":"m 243 0 l 160 0 l 160 446 l 104 446 l 104 0 l 21 0 l 21 972 l 104 972 l 104 524 l 160 524 l 160 972 l 243 972 l 243 0 m 271 711 l -7 711 l -7 789 l 271 789 l 271 711 z "},"ħ":{"ha":253,"x_min":-24,"x_max":232,"o":"m 154 683 q 126 728 154 728 q 99 683 99 728 l 99 0 l 21 0 l 21 1014 l 99 1014 l 99 746 l 101 746 q 163 800 117 800 q 213 770 194 800 q 232 689 232 740 l 232 0 l 154 0 l 154 683 m 143 846 l -24 846 l -24 924 l 143 924 l 143 846 z "},"Ĩ":{"ha":125,"x_min":-26,"x_max":153,"o":"m 104 0 l 21 0 l 21 972 l 104 972 l 104 0 m 153 1154 q 142 1060 153 1088 q 106 1033 132 1033 q 82 1039 93 1033 q 62 1051 71 1044 q 44 1063 53 1057 q 24 1068 35 1068 q 10 1061 14 1068 q 7 1035 7 1054 l 7 1033 l -26 1033 l -26 1036 q -17 1129 -26 1103 q 17 1156 -7 1156 q 40 1150 29 1156 q 62 1138 51 1144 q 82 1126 72 1132 q 101 1121 92 1121 q 119 1150 119 1121 l 119 1157 l 153 1157 l 153 1154 z "},"ĩ":{"ha":119,"x_min":-29,"x_max":150,"o":"m 21 792 l 99 792 l 99 0 l 21 0 l 21 792 m 150 974 q 140 880 150 907 q 103 853 129 853 q 79 858 90 853 q 59 870 68 864 q 41 882 50 876 q 21 888 32 888 q 8 881 11 888 q 4 854 4 874 l 4 853 l -29 853 l -29 856 q -19 949 -29 922 q 14 975 -10 975 q 38 969 26 975 q 59 958 49 964 q 79 946 69 951 q 99 940 89 940 q 117 969 117 940 l 117 976 l 150 976 l 150 974 z "},"Ī":{"ha":125,"x_min":-15,"x_max":138,"o":"m 104 0 l 21 0 l 21 972 l 104 972 l 104 0 m 138 1032 l -15 1032 l -15 1115 l 138 1115 l 138 1032 z "},"ī":{"ha":119,"x_min":-18,"x_max":135,"o":"m 21 792 l 99 792 l 99 0 l 21 0 l 21 792 m 135 851 l -18 851 l -18 935 l 135 935 l 135 851 z "},"Ĭ":{"ha":125,"x_min":-39,"x_max":164,"o":"m 104 0 l 21 0 l 21 972 l 104 972 l 104 0 m 28 1160 q 63 1108 28 1108 q 97 1160 97 1108 l 164 1160 q 138 1060 164 1090 q 63 1031 111 1031 q -12 1060 14 1031 q -39 1160 -39 1090 l 28 1160 z "},"ĭ":{"ha":119,"x_min":-42,"x_max":161,"o":"m 21 792 l 99 792 l 99 0 l 21 0 l 21 792 m 25 979 q 60 928 25 928 q 94 979 94 928 l 161 979 q 135 880 161 910 q 60 850 108 850 q -15 880 11 850 q -42 979 -42 910 l 25 979 z "},"Į":{"ha":125,"x_min":-3,"x_max":104,"o":"m 104 0 l 21 0 l 21 972 l 104 972 l 104 0 m 103 0 q 72 -11 85 0 q 60 -37 60 -22 q 92 -67 60 -67 q 103 -65 100 -67 l 103 -150 q 75 -153 92 -153 q 19 -133 40 -153 q -3 -81 -3 -112 q 28 -17 -3 -42 q 103 8 58 8 l 103 0 z "},"į":{"ha":119,"x_min":-8,"x_max":99,"o":"m 21 944 l 99 944 l 99 819 l 21 819 l 21 944 m 21 792 l 99 792 l 99 0 l 21 0 l 21 792 m 97 0 q 67 -11 79 0 q 54 -37 54 -22 q 86 -67 54 -67 q 97 -65 94 -67 l 97 -150 q 69 -153 86 -153 q 13 -133 35 -153 q -8 -81 -8 -112 q 22 -17 -8 -42 q 97 8 53 8 l 97 0 z "},"İ":{"ha":125,"x_min":21,"x_max":104,"o":"m 104 0 l 21 0 l 21 972 l 104 972 l 104 0 m 21 1138 l 104 1138 l 104 1026 l 21 1026 l 21 1138 z "},"Ĳ":{"ha":389,"x_min":21,"x_max":368,"o":"m 104 0 l 21 0 l 21 972 l 104 972 l 104 0 m 368 103 q 339 22 368 51 q 258 -8 310 -8 q 176 22 207 -8 q 146 103 146 51 l 146 411 l 229 411 l 229 114 q 257 69 229 69 q 285 114 285 69 l 285 972 l 368 972 l 368 103 z "},"ĳ":{"ha":239,"x_min":21,"x_max":218,"o":"m 21 944 l 99 944 l 99 819 l 21 819 l 21 944 m 21 792 l 99 792 l 99 0 l 21 0 l 21 792 m 218 819 l 140 819 l 140 944 l 218 944 l 218 819 m 218 -124 q 214 -176 218 -157 q 201 -206 210 -196 q 176 -219 192 -217 q 140 -222 161 -222 l 113 -222 l 113 -153 q 137 -147 133 -153 q 140 -121 140 -140 l 140 792 l 218 792 l 218 -124 z "},"Ĵ":{"ha":264,"x_min":21,"x_max":275,"o":"m 243 103 q 214 22 243 51 q 133 -8 185 -8 q 51 22 82 -8 q 21 103 21 51 l 21 411 l 104 411 l 104 114 q 132 69 104 69 q 160 114 160 69 l 160 972 l 243 972 l 243 103 m 128 1014 l 160 1176 l 243 1176 l 275 1014 l 219 1014 l 203 1107 l 200 1107 l 183 1014 l 128 1014 z "},"ĵ":{"ha":119,"x_min":-15,"x_max":132,"o":"m 99 -125 q 94 -178 99 -158 q 81 -208 90 -197 q 57 -221 72 -218 q 21 -224 42 -224 l -7 -224 l -7 -154 q 17 -148 14 -154 q 21 -122 21 -142 l 21 792 l 99 792 l 99 -125 m -15 833 l 17 996 l 100 996 l 132 833 l 76 833 l 60 926 l 57 926 l 40 833 l -15 833 z "},"Ķ":{"ha":253,"x_min":21,"x_max":253,"o":"m 182 528 l 182 525 l 253 0 l 171 0 l 107 468 l 104 468 l 104 0 l 21 0 l 21 972 l 104 972 l 104 558 l 107 558 l 169 972 l 253 972 l 182 528 m 100 -28 l 176 -28 l 176 -139 l 161 -214 l 126 -214 l 142 -139 l 100 -139 l 100 -28 z "},"ķ":{"ha":249,"x_min":21,"x_max":244,"o":"m 171 429 l 171 426 l 244 0 l 168 0 l 101 381 l 99 381 l 99 0 l 21 0 l 21 1014 l 99 1014 l 99 454 l 101 454 l 164 792 l 242 792 l 171 429 m 96 -28 l 172 -28 l 172 -139 l 157 -214 l 122 -214 l 138 -139 l 96 -139 l 96 -28 z "},"ĸ":{"ha":249,"x_min":21,"x_max":244,"o":"m 171 429 l 171 426 l 244 0 l 168 0 l 101 381 l 99 381 l 99 0 l 21 0 l 21 792 l 99 792 l 99 454 l 101 454 l 164 792 l 242 792 l 171 429 z "},"Ĺ":{"ha":174,"x_min":21,"x_max":164,"o":"m 104 972 l 104 78 l 164 78 l 164 0 l 21 0 l 21 972 l 104 972 m 32 1014 l 50 1176 l 133 1176 l 93 1014 l 32 1014 z "},"ĺ":{"ha":119,"x_min":21,"x_max":129,"o":"m 21 1014 l 99 1014 l 99 0 l 21 0 l 21 1014 m 28 1056 l 46 1218 l 129 1218 l 89 1056 l 28 1056 z "},"Ļ":{"ha":174,"x_min":21,"x_max":164,"o":"m 104 972 l 104 78 l 164 78 l 164 0 l 21 0 l 21 972 l 104 972 m 56 -28 l 132 -28 l 132 -139 l 117 -214 l 82 -214 l 97 -139 l 56 -139 l 56 -28 z "},"ļ":{"ha":119,"x_min":21,"x_max":99,"o":"m 21 1014 l 99 1014 l 99 0 l 21 0 l 21 1014 m 22 -28 l 99 -28 l 99 -139 l 83 -214 l 49 -214 l 64 -139 l 22 -139 l 22 -28 z "},"Ľ":{"ha":174,"x_min":21,"x_max":208,"o":"m 104 972 l 104 78 l 164 78 l 164 0 l 21 0 l 21 972 l 104 972 m 132 972 l 208 972 l 182 838 l 124 838 l 132 972 z "},"ľ":{"ha":189,"x_min":21,"x_max":203,"o":"m 21 1014 l 99 1014 l 99 0 l 21 0 l 21 1014 m 126 1014 l 203 1014 l 176 879 l 118 879 l 126 1014 z "},"Ŀ":{"ha":219,"x_min":21,"x_max":210,"o":"m 104 972 l 104 78 l 164 78 l 164 0 l 21 0 l 21 972 l 104 972 z "},"ŀ":{"ha":232,"x_min":21,"x_max":211,"o":"m 21 1014 l 99 1014 l 99 0 l 21 0 l 21 1014 z "},"Ń":{"ha":314,"x_min":21,"x_max":293,"o":"m 293 0 l 179 0 l 85 813 l 82 813 l 94 479 l 99 0 l 21 0 l 21 972 l 135 972 l 229 164 l 232 164 l 219 482 l 215 972 l 293 972 l 293 0 m 126 1014 l 144 1176 l 228 1176 l 188 1014 l 126 1014 z "},"ń":{"ha":253,"x_min":21,"x_max":232,"o":"m 154 683 q 126 728 154 728 q 99 683 99 728 l 99 0 l 21 0 l 21 792 l 99 792 l 99 746 l 101 746 q 163 800 117 800 q 213 770 194 800 q 232 689 232 740 l 232 0 l 154 0 l 154 683 m 92 833 l 110 996 l 193 996 l 153 833 l 92 833 z "},"Ņ":{"ha":314,"x_min":21,"x_max":293,"o":"m 293 0 l 179 0 l 85 813 l 82 813 l 94 479 l 99 0 l 21 0 l 21 972 l 135 972 l 229 164 l 232 164 l 219 482 l 215 972 l 293 972 l 293 0 m 119 -28 l 196 -28 l 196 -139 l 181 -214 l 146 -214 l 161 -139 l 119 -139 l 119 -28 z "},"ņ":{"ha":253,"x_min":21,"x_max":232,"o":"m 154 683 q 126 728 154 728 q 99 683 99 728 l 99 0 l 21 0 l 21 792 l 99 792 l 99 746 l 101 746 q 163 800 117 800 q 213 770 194 800 q 232 689 232 740 l 232 0 l 154 0 l 154 683 m 89 -28 l 165 -28 l 165 -139 l 150 -214 l 115 -214 l 131 -139 l 89 -139 l 89 -28 z "},"Ň":{"ha":314,"x_min":21,"x_max":293,"o":"m 293 0 l 179 0 l 85 813 l 82 813 l 94 479 l 99 0 l 21 0 l 21 972 l 135 972 l 229 164 l 232 164 l 219 482 l 215 972 l 293 972 l 293 0 m 244 1176 l 213 1014 l 129 1014 l 97 1176 l 153 1176 l 169 1083 l 172 1083 l 189 1176 l 244 1176 z "},"ň":{"ha":253,"x_min":21,"x_max":232,"o":"m 154 683 q 126 728 154 728 q 99 683 99 728 l 99 0 l 21 0 l 21 792 l 99 792 l 99 746 l 101 746 q 163 800 117 800 q 213 770 194 800 q 232 689 232 740 l 232 0 l 154 0 l 154 683 m 210 996 l 178 833 l 94 833 l 63 996 l 118 996 l 135 903 l 138 903 l 154 996 l 210 996 z "},"ŉ":{"ha":408,"x_min":21,"x_max":388,"o":"m 21 972 l 388 972 l 388 0 l 21 0 l 21 972 m 204 611 l 285 903 l 121 903 l 204 611 m 318 210 l 318 772 l 239 488 l 318 210 m 90 200 l 169 488 l 90 767 l 90 200 m 124 69 l 289 69 l 206 364 l 124 69 z "},"Ŋ":{"ha":408,"x_min":21,"x_max":388,"o":"m 21 972 l 388 972 l 388 0 l 21 0 l 21 972 m 204 611 l 285 903 l 121 903 l 204 611 m 318 210 l 318 772 l 239 488 l 318 210 m 90 200 l 169 488 l 90 767 l 90 200 m 124 69 l 289 69 l 206 364 l 124 69 z "},"ŋ":{"ha":408,"x_min":21,"x_max":388,"o":"m 21 972 l 388 972 l 388 0 l 21 0 l 21 972 m 204 611 l 285 903 l 121 903 l 204 611 m 318 210 l 318 772 l 239 488 l 318 210 m 90 200 l 169 488 l 90 767 l 90 200 m 124 69 l 289 69 l 206 364 l 124 69 z "},"Ō":{"ha":264,"x_min":21,"x_max":243,"o":"m 243 103 q 214 22 243 51 q 133 -8 185 -8 q 51 22 82 -8 q 21 103 21 51 l 21 869 q 51 951 21 921 q 133 981 82 981 q 214 951 185 981 q 243 869 243 921 l 243 103 m 160 858 q 132 903 160 903 q 104 858 104 903 l 104 114 q 132 69 104 69 q 160 114 160 69 l 160 858 m 208 1032 l 56 1032 l 56 1115 l 208 1115 l 208 1032 z "},"ō":{"ha":253,"x_min":21,"x_max":232,"o":"m 232 103 q 204 22 232 51 q 128 -8 176 -8 q 50 22 79 -8 q 21 103 21 51 l 21 689 q 50 770 21 740 q 128 800 79 800 q 204 770 176 800 q 232 689 232 740 l 232 103 m 154 683 q 126 728 154 728 q 99 683 99 728 l 99 108 q 126 64 99 64 q 154 108 154 64 l 154 683 m 203 851 l 50 851 l 50 935 l 203 935 l 203 851 z "},"Ŏ":{"ha":264,"x_min":21,"x_max":243,"o":"m 243 103 q 214 22 243 51 q 133 -8 185 -8 q 51 22 82 -8 q 21 103 21 51 l 21 869 q 51 951 21 921 q 133 981 82 981 q 214 951 185 981 q 243 869 243 921 l 243 103 m 160 858 q 132 903 160 903 q 104 858 104 903 l 104 114 q 132 69 104 69 q 160 114 160 69 l 160 858 m 99 1160 q 133 1108 99 1108 q 168 1160 168 1108 l 235 1160 q 208 1060 235 1090 q 133 1031 182 1031 q 58 1060 85 1031 q 32 1160 32 1090 l 99 1160 z "},"ŏ":{"ha":253,"x_min":21,"x_max":232,"o":"m 232 103 q 204 22 232 51 q 128 -8 176 -8 q 50 22 79 -8 q 21 103 21 51 l 21 689 q 50 770 21 740 q 128 800 79 800 q 204 770 176 800 q 232 689 232 740 l 232 103 m 154 683 q 126 728 154 728 q 99 683 99 728 l 99 108 q 126 64 99 64 q 154 108 154 64 l 154 683 m 93 979 q 128 928 93 928 q 163 979 163 928 l 229 979 q 203 880 229 910 q 128 850 176 850 q 53 880 79 850 q 26 979 26 910 l 93 979 z "},"Ő":{"ha":264,"x_min":21,"x_max":263,"o":"m 243 103 q 214 22 243 51 q 133 -8 185 -8 q 51 22 82 -8 q 21 103 21 51 l 21 869 q 51 951 21 921 q 133 981 82 981 q 214 951 185 981 q 243 869 243 921 l 243 103 m 160 858 q 132 903 160 903 q 104 858 104 903 l 104 114 q 132 69 104 69 q 160 114 160 69 l 160 858 z "},"ő":{"ha":253,"x_min":21,"x_max":257,"o":"m 232 103 q 204 22 232 51 q 128 -8 176 -8 q 50 22 79 -8 q 21 103 21 51 l 21 689 q 50 770 21 740 q 128 800 79 800 q 204 770 176 800 q 232 689 232 740 l 232 103 m 154 683 q 126 728 154 728 q 99 683 99 728 l 99 108 q 126 64 99 64 q 154 108 154 64 l 154 683 z "},"Ŕ":{"ha":264,"x_min":21,"x_max":257,"o":"m 160 414 q 153 446 160 438 q 132 454 147 454 l 104 454 l 104 0 l 21 0 l 21 972 l 133 972 q 243 861 243 972 l 243 579 q 234 524 243 542 q 197 494 225 506 l 197 492 q 234 463 225 481 q 243 407 243 444 l 243 125 q 244 65 243 94 q 257 3 246 35 l 257 0 l 174 0 q 160 126 160 61 l 160 414 m 160 854 q 153 886 160 878 q 132 894 147 894 l 104 894 l 104 532 l 132 532 q 160 572 160 532 l 160 854 m 90 1014 l 108 1176 l 192 1176 l 151 1014 l 90 1014 z "},"ŕ":{"ha":253,"x_min":21,"x_max":232,"o":"m 154 683 q 126 728 154 728 q 99 683 99 728 l 99 0 l 21 0 l 21 792 l 99 792 l 99 746 l 101 746 q 163 800 117 800 q 213 770 194 800 q 232 689 232 740 l 232 467 l 154 467 l 154 683 m 96 833 l 114 996 l 197 996 l 157 833 l 96 833 z "},"Ŗ":{"ha":264,"x_min":21,"x_max":257,"o":"m 160 414 q 153 446 160 438 q 132 454 147 454 l 104 454 l 104 0 l 21 0 l 21 972 l 133 972 q 243 861 243 972 l 243 579 q 234 524 243 542 q 197 494 225 506 l 197 492 q 234 463 225 481 q 243 407 243 444 l 243 125 q 244 65 243 94 q 257 3 246 35 l 257 0 l 174 0 q 160 126 160 61 l 160 414 m 160 854 q 153 886 160 878 q 132 894 147 894 l 104 894 l 104 532 l 132 532 q 160 572 160 532 l 160 854 m 103 -28 l 179 -28 l 179 -139 l 164 -214 l 129 -214 l 144 -139 l 103 -139 l 103 -28 z "},"ŗ":{"ha":253,"x_min":21,"x_max":232,"o":"m 154 683 q 126 728 154 728 q 99 683 99 728 l 99 0 l 21 0 l 21 792 l 99 792 l 99 746 l 101 746 q 163 800 117 800 q 213 770 194 800 q 232 689 232 740 l 232 467 l 154 467 l 154 683 m 22 -28 l 99 -28 l 99 -139 l 83 -214 l 49 -214 l 64 -139 l 22 -139 l 22 -28 z "},"Ř":{"ha":264,"x_min":21,"x_max":257,"o":"m 160 414 q 153 446 160 438 q 132 454 147 454 l 104 454 l 104 0 l 21 0 l 21 972 l 133 972 q 243 861 243 972 l 243 579 q 234 524 243 542 q 197 494 225 506 l 197 492 q 234 463 225 481 q 243 407 243 444 l 243 125 q 244 65 243 94 q 257 3 246 35 l 257 0 l 174 0 q 160 126 160 61 l 160 414 m 160 854 q 153 886 160 878 q 132 894 147 894 l 104 894 l 104 532 l 132 532 q 160 572 160 532 l 160 854 m 208 1176 l 176 1014 l 93 1014 l 61 1176 l 117 1176 l 133 1083 l 136 1083 l 153 1176 l 208 1176 z "},"ř":{"ha":253,"x_min":21,"x_max":232,"o":"m 154 683 q 126 728 154 728 q 99 683 99 728 l 99 0 l 21 0 l 21 792 l 99 792 l 99 746 l 101 746 q 163 800 117 800 q 213 770 194 800 q 232 689 232 740 l 232 467 l 154 467 l 154 683 m 214 996 l 182 833 l 99 833 l 67 996 l 122 996 l 139 903 l 142 903 l 158 996 l 214 996 z "},"Ś":{"ha":257,"x_min":18,"x_max":240,"o":"m 240 103 q 210 22 240 51 q 128 -8 179 -8 q 47 22 76 -8 q 18 103 18 51 l 18 342 l 101 342 l 101 114 q 129 69 101 69 q 157 114 157 69 l 157 299 q 137 403 157 360 q 92 490 117 447 q 41 589 64 536 q 18 718 18 642 l 18 869 q 49 951 18 921 q 131 981 79 981 q 211 951 182 981 q 240 869 240 921 l 240 674 l 157 674 l 157 858 q 129 903 157 903 q 101 858 101 903 l 101 718 q 122 613 101 657 q 167 525 142 568 q 217 426 194 479 q 240 299 240 374 l 240 103 m 100 1014 l 118 1176 l 201 1176 l 161 1014 l 100 1014 z "},"ś":{"ha":244,"x_min":17,"x_max":228,"o":"m 228 103 q 199 22 228 51 q 121 -8 169 -8 q 44 22 72 -8 q 17 103 17 51 l 17 279 l 94 279 l 94 108 q 122 64 94 64 q 150 108 150 64 l 150 261 q 131 333 150 301 q 89 397 113 365 q 40 474 63 433 q 17 569 17 514 l 17 689 q 46 770 17 740 q 124 800 75 800 q 200 770 172 800 q 228 689 228 740 l 228 550 l 150 550 l 150 683 q 122 728 150 728 q 94 683 94 728 l 94 569 q 113 497 94 529 q 156 433 132 465 q 205 356 182 397 q 228 261 228 314 l 228 103 m 92 833 l 110 996 l 193 996 l 153 833 l 92 833 z "},"Ŝ":{"ha":257,"x_min":18,"x_max":240,"o":"m 240 103 q 210 22 240 51 q 128 -8 179 -8 q 47 22 76 -8 q 18 103 18 51 l 18 342 l 101 342 l 101 114 q 129 69 101 69 q 157 114 157 69 l 157 299 q 137 403 157 360 q 92 490 117 447 q 41 589 64 536 q 18 718 18 642 l 18 869 q 49 951 18 921 q 131 981 79 981 q 211 951 182 981 q 240 869 240 921 l 240 674 l 157 674 l 157 858 q 129 903 157 903 q 101 858 101 903 l 101 718 q 122 613 101 657 q 167 525 142 568 q 217 426 194 479 q 240 299 240 374 l 240 103 m 56 1014 l 88 1176 l 171 1176 l 203 1014 l 147 1014 l 131 1107 l 128 1107 l 111 1014 l 56 1014 z "},"ŝ":{"ha":244,"x_min":17,"x_max":228,"o":"m 228 103 q 199 22 228 51 q 121 -8 169 -8 q 44 22 72 -8 q 17 103 17 51 l 17 279 l 94 279 l 94 108 q 122 64 94 64 q 150 108 150 64 l 150 261 q 131 333 150 301 q 89 397 113 365 q 40 474 63 433 q 17 569 17 514 l 17 689 q 46 770 17 740 q 124 800 75 800 q 200 770 172 800 q 228 689 228 740 l 228 550 l 150 550 l 150 683 q 122 728 150 728 q 94 683 94 728 l 94 569 q 113 497 94 529 q 156 433 132 465 q 205 356 182 397 q 228 261 228 314 l 228 103 m 47 833 l 79 996 l 163 996 l 194 833 l 139 833 l 122 926 l 119 926 l 103 833 l 47 833 z "},"Ş":{"ha":257,"x_min":18,"x_max":240,"o":"m 240 103 q 210 22 240 51 q 128 -8 179 -8 q 47 22 76 -8 q 18 103 18 51 l 18 342 l 101 342 l 101 114 q 129 69 101 69 q 157 114 157 69 l 157 299 q 137 403 157 360 q 92 490 117 447 q 41 589 64 536 q 18 718 18 642 l 18 869 q 49 951 18 921 q 131 981 79 981 q 211 951 182 981 q 240 869 240 921 l 240 674 l 157 674 l 157 858 q 129 903 157 903 q 101 858 101 903 l 101 718 q 122 613 101 657 q 167 525 142 568 q 217 426 194 479 q 240 299 240 374 l 240 103 m 150 3 l 143 -28 q 205 -49 181 -28 q 229 -100 229 -69 q 196 -159 229 -136 q 110 -182 163 -182 q 63 -175 90 -182 l 63 -110 q 77 -112 69 -111 q 93 -112 85 -112 q 133 -107 118 -112 q 147 -90 147 -101 q 131 -72 147 -79 q 89 -64 115 -64 l 104 3 l 150 3 z "},"ş":{"ha":244,"x_min":17,"x_max":228,"o":"m 228 103 q 199 22 228 51 q 121 -8 169 -8 q 44 22 72 -8 q 17 103 17 51 l 17 279 l 94 279 l 94 108 q 122 64 94 64 q 150 108 150 64 l 150 261 q 131 333 150 301 q 89 397 113 365 q 40 474 63 433 q 17 569 17 514 l 17 689 q 46 770 17 740 q 124 800 75 800 q 200 770 172 800 q 228 689 228 740 l 228 550 l 150 550 l 150 683 q 122 728 150 728 q 94 683 94 728 l 94 569 q 113 497 94 529 q 156 433 132 465 q 205 356 182 397 q 228 261 228 314 l 228 103 m 143 3 l 136 -28 q 198 -49 174 -28 q 222 -100 222 -69 q 189 -159 222 -136 q 103 -182 156 -182 q 56 -175 83 -182 l 56 -110 q 70 -112 63 -111 q 86 -112 78 -112 q 126 -107 111 -112 q 140 -90 140 -101 q 124 -72 140 -79 q 82 -64 108 -64 l 97 3 l 143 3 z "},"Ţ":{"ha":242,"x_min":10,"x_max":232,"o":"m 232 894 l 163 894 l 163 0 l 79 0 l 79 894 l 10 894 l 10 972 l 232 972 l 232 894 m 143 3 l 136 -28 q 198 -49 174 -28 q 222 -100 222 -69 q 189 -159 222 -136 q 103 -182 156 -182 q 56 -175 83 -182 l 56 -110 q 70 -112 63 -111 q 86 -112 78 -112 q 126 -107 111 -112 q 140 -90 140 -101 q 124 -72 140 -79 q 82 -64 108 -64 l 97 3 l 143 3 z "},"ţ":{"ha":146,"x_min":7,"x_max":199,"o":"m 104 944 l 104 792 l 139 792 l 139 719 l 104 719 l 104 101 q 108 76 104 82 q 139 69 113 69 l 139 0 l 104 0 q 44 15 63 0 q 26 85 26 29 l 26 719 l 7 719 l 7 792 l 26 792 l 26 944 l 104 944 m 119 3 l 113 -28 q 174 -49 150 -28 q 199 -100 199 -69 q 165 -159 199 -136 q 79 -182 132 -182 q 32 -175 60 -182 l 32 -110 q 47 -112 39 -111 q 63 -112 54 -112 q 102 -107 88 -112 q 117 -90 117 -101 q 101 -72 117 -79 q 58 -64 85 -64 l 74 3 l 119 3 z "},"Ť":{"ha":242,"x_min":10,"x_max":232,"o":"m 232 894 l 163 894 l 163 0 l 79 0 l 79 894 l 10 894 l 10 972 l 232 972 l 232 894 m 208 1176 l 176 1014 l 93 1014 l 61 1176 l 117 1176 l 133 1083 l 136 1083 l 153 1176 l 208 1176 z "},"ť":{"ha":186,"x_min":7,"x_max":200,"o":"m 104 944 l 104 792 l 139 792 l 139 719 l 104 719 l 104 101 q 108 76 104 82 q 139 69 113 69 l 139 0 l 104 0 q 44 15 63 0 q 26 85 26 29 l 26 719 l 7 719 l 7 792 l 26 792 l 26 944 l 104 944 m 124 1014 l 200 1014 l 174 879 l 115 879 l 124 1014 z "},"Ŧ":{"ha":242,"x_min":10,"x_max":232,"o":"m 232 894 l 163 894 l 163 0 l 79 0 l 79 894 l 10 894 l 10 972 l 232 972 l 232 894 m 204 408 l 38 408 l 38 486 l 204 486 l 204 408 z "},"ŧ":{"ha":146,"x_min":7,"x_max":139,"o":"m 104 944 l 104 792 l 139 792 l 139 719 l 104 719 l 104 101 q 108 76 104 82 q 139 69 113 69 l 139 0 l 104 0 q 44 15 63 0 q 26 85 26 29 l 26 719 l 7 719 l 7 792 l 26 792 l 26 944 l 104 944 m 139 614 l 7 614 l 7 692 l 139 692 l 139 614 z "},"Ũ":{"ha":264,"x_min":21,"x_max":243,"o":"m 243 103 q 214 22 243 51 q 133 -8 185 -8 q 51 22 82 -8 q 21 103 21 51 l 21 972 l 104 972 l 104 114 q 132 69 104 69 q 160 114 160 69 l 160 972 l 243 972 l 243 103 m 222 1154 q 212 1060 222 1088 q 175 1033 201 1033 q 151 1039 163 1033 q 131 1051 140 1044 q 113 1063 122 1057 q 93 1068 104 1068 q 80 1061 83 1068 q 76 1035 76 1054 l 76 1033 l 43 1033 l 43 1036 q 53 1129 43 1103 q 86 1156 63 1156 q 110 1150 99 1156 q 131 1138 121 1144 q 151 1126 142 1132 q 171 1121 161 1121 q 189 1150 189 1121 l 189 1157 l 222 1157 l 222 1154 z "},"ũ":{"ha":253,"x_min":21,"x_max":232,"o":"m 99 108 q 126 64 99 64 q 154 108 154 64 l 154 792 l 232 792 l 232 0 l 154 0 l 154 46 l 151 46 q 90 -8 136 -8 q 40 22 58 -8 q 21 103 21 51 l 21 792 l 99 792 l 99 108 m 217 974 q 206 880 217 907 q 169 853 196 853 q 146 858 157 853 q 126 870 135 864 q 108 882 117 876 q 88 888 99 888 q 74 881 78 888 q 71 854 71 874 l 71 853 l 38 853 l 38 856 q 47 949 38 922 q 81 975 57 975 q 104 969 93 975 q 126 958 115 964 q 146 946 136 951 q 165 940 156 940 q 183 969 183 940 l 183 976 l 217 976 l 217 974 z "},"Ū":{"ha":264,"x_min":21,"x_max":243,"o":"m 243 103 q 214 22 243 51 q 133 -8 185 -8 q 51 22 82 -8 q 21 103 21 51 l 21 972 l 104 972 l 104 114 q 132 69 104 69 q 160 114 160 69 l 160 972 l 243 972 l 243 103 m 207 1032 l 54 1032 l 54 1115 l 207 1115 l 207 1032 z "},"ū":{"ha":253,"x_min":21,"x_max":232,"o":"m 99 108 q 126 64 99 64 q 154 108 154 64 l 154 792 l 232 792 l 232 0 l 154 0 l 154 46 l 151 46 q 90 -8 136 -8 q 40 22 58 -8 q 21 103 21 51 l 21 792 l 99 792 l 99 108 m 201 851 l 49 851 l 49 935 l 201 935 l 201 851 z "},"Ŭ":{"ha":264,"x_min":21,"x_max":243,"o":"m 243 103 q 214 22 243 51 q 133 -8 185 -8 q 51 22 82 -8 q 21 103 21 51 l 21 972 l 104 972 l 104 114 q 132 69 104 69 q 160 114 160 69 l 160 972 l 243 972 l 243 103 m 97 1160 q 132 1108 97 1108 q 167 1160 167 1108 l 233 1160 q 207 1060 233 1090 q 132 1031 181 1031 q 57 1060 83 1031 q 31 1160 31 1090 l 97 1160 z "},"ŭ":{"ha":253,"x_min":21,"x_max":232,"o":"m 99 108 q 126 64 99 64 q 154 108 154 64 l 154 792 l 232 792 l 232 0 l 154 0 l 154 46 l 151 46 q 90 -8 136 -8 q 40 22 58 -8 q 21 103 21 51 l 21 792 l 99 792 l 99 108 m 92 979 q 126 928 92 928 q 161 979 161 928 l 228 979 q 201 880 228 910 q 126 850 175 850 q 51 880 78 850 q 25 979 25 910 l 92 979 z "},"Ů":{"ha":264,"x_min":21,"x_max":243,"o":"m 243 103 q 214 22 243 51 q 133 -8 185 -8 q 51 22 82 -8 q 21 103 21 51 l 21 972 l 104 972 l 104 114 q 132 69 104 69 q 160 114 160 69 l 160 972 l 243 972 l 243 103 m 47 1096 q 132 1178 47 1178 q 194 1156 172 1178 q 215 1094 215 1135 q 132 1013 215 1013 q 47 1096 47 1013 m 101 1096 q 132 1067 101 1067 q 161 1094 161 1067 q 132 1124 161 1124 q 101 1096 101 1124 z "},"ů":{"ha":253,"x_min":21,"x_max":232,"o":"m 99 108 q 126 64 99 64 q 154 108 154 64 l 154 792 l 232 792 l 232 0 l 154 0 l 154 46 l 151 46 q 90 -8 136 -8 q 40 22 58 -8 q 21 103 21 51 l 21 792 l 99 792 l 99 108 m 42 915 q 126 997 42 997 q 188 976 167 997 q 210 914 210 954 q 126 832 210 832 q 42 915 42 832 m 96 915 q 126 886 96 886 q 156 914 156 886 q 126 943 156 943 q 96 915 96 943 z "},"Ű":{"ha":264,"x_min":21,"x_max":261,"o":"m 243 103 q 214 22 243 51 q 133 -8 185 -8 q 51 22 82 -8 q 21 103 21 51 l 21 972 l 104 972 l 104 114 q 132 69 104 69 q 160 114 160 69 l 160 972 l 243 972 l 243 103 z "},"ű":{"ha":253,"x_min":21,"x_max":256,"o":"m 99 108 q 126 64 99 64 q 154 108 154 64 l 154 792 l 232 792 l 232 0 l 154 0 l 154 46 l 151 46 q 90 -8 136 -8 q 40 22 58 -8 q 21 103 21 51 l 21 792 l 99 792 l 99 108 z "},"Ų":{"ha":264,"x_min":21,"x_max":243,"o":"m 243 103 q 214 22 243 51 q 133 -8 185 -8 q 51 22 82 -8 q 21 103 21 51 l 21 972 l 104 972 l 104 114 q 132 69 104 69 q 160 114 160 69 l 160 972 l 243 972 l 243 103 m 175 -1 q 152 -15 161 -4 q 143 -37 143 -25 q 175 -67 143 -67 q 186 -65 183 -67 l 186 -150 q 158 -153 175 -153 q 102 -133 124 -153 q 81 -81 81 -112 q 107 -20 81 -44 q 174 8 133 4 l 175 -1 z "},"ų":{"ha":253,"x_min":21,"x_max":232,"o":"m 99 108 q 126 64 99 64 q 154 108 154 64 l 154 792 l 232 792 l 232 0 l 154 0 l 154 46 l 151 46 q 90 -8 136 -8 q 40 22 58 -8 q 21 103 21 51 l 21 792 l 99 792 l 99 108 m 231 0 q 200 -11 213 0 q 188 -37 188 -22 q 219 -67 188 -67 q 231 -65 228 -67 l 231 -150 q 203 -153 219 -153 q 147 -133 168 -153 q 125 -81 125 -112 q 156 -17 125 -42 q 231 8 186 8 l 231 0 z "},"Ŵ":{"ha":403,"x_min":0,"x_max":403,"o":"m 342 0 l 231 0 l 207 665 l 203 819 l 200 819 l 196 665 l 172 0 l 61 0 l 0 972 l 88 972 l 110 363 l 115 124 l 118 124 l 125 363 l 146 972 l 257 972 l 279 363 l 285 124 l 288 124 l 294 364 l 315 972 l 403 972 l 342 0 m 126 1014 l 158 1176 l 242 1176 l 274 1014 l 218 1014 l 201 1107 l 199 1107 l 182 1014 l 126 1014 z "},"ŵ":{"ha":397,"x_min":4,"x_max":393,"o":"m 393 792 l 328 0 l 228 0 l 203 517 l 200 674 l 197 674 l 193 515 l 169 0 l 69 0 l 4 792 l 86 792 l 111 296 l 118 101 l 121 101 l 128 296 l 153 792 l 244 792 l 269 296 l 276 101 l 279 101 l 286 296 l 311 792 l 393 792 m 124 833 l 156 996 l 239 996 l 271 833 l 215 833 l 199 926 l 196 926 l 179 833 l 124 833 z "},"Ŷ":{"ha":242,"x_min":0,"x_max":242,"o":"m 163 319 l 163 0 l 79 0 l 79 319 l 0 972 l 86 972 l 114 638 l 119 499 l 122 499 l 128 638 l 156 972 l 242 972 l 163 319 m 46 1014 l 78 1176 l 161 1176 l 193 1014 l 138 1014 l 121 1107 l 118 1107 l 101 1014 l 46 1014 z "},"ŷ":{"ha":243,"x_min":4,"x_max":239,"o":"m 118 365 l 125 171 l 128 171 l 133 365 l 167 792 l 239 792 l 142 -222 l 68 -222 l 90 0 l 4 792 l 86 792 l 118 365 m 47 833 l 79 996 l 163 996 l 194 833 l 139 833 l 122 926 l 119 926 l 103 833 l 47 833 z "},"Ź":{"ha":219,"x_min":10,"x_max":210,"o":"m 210 894 l 94 78 l 208 78 l 208 0 l 10 0 l 10 78 l 125 894 l 17 894 l 17 972 l 210 972 l 210 894 m 83 1014 l 101 1176 l 185 1176 l 144 1014 l 83 1014 z "},"ź":{"ha":214,"x_min":10,"x_max":204,"o":"m 204 719 l 89 72 l 203 72 l 203 0 l 10 0 l 10 72 l 125 719 l 17 719 l 17 792 l 204 792 l 204 719 m 76 833 l 94 996 l 178 996 l 138 833 l 76 833 z "},"Ż":{"ha":219,"x_min":10,"x_max":210,"o":"m 210 894 l 94 78 l 208 78 l 208 0 l 10 0 l 10 78 l 125 894 l 17 894 l 17 972 l 210 972 l 210 894 m 72 1138 l 156 1138 l 156 1026 l 72 1026 l 72 1138 z "},"ż":{"ha":214,"x_min":10,"x_max":204,"o":"m 204 719 l 89 72 l 203 72 l 203 0 l 10 0 l 10 72 l 125 719 l 17 719 l 17 792 l 204 792 l 204 719 m 65 957 l 149 957 l 149 846 l 65 846 l 65 957 z "},"ſ":{"ha":408,"x_min":21,"x_max":388,"o":"m 21 972 l 388 972 l 388 0 l 21 0 l 21 972 m 204 611 l 285 903 l 121 903 l 204 611 m 318 210 l 318 772 l 239 488 l 318 210 m 90 200 l 169 488 l 90 767 l 90 200 m 124 69 l 289 69 l 206 364 l 124 69 z "},"ȷ":{"ha":119,"x_min":-7,"x_max":99,"o":"m 99 -125 q 94 -178 99 -158 q 81 -208 90 -197 q 57 -221 72 -218 q 21 -224 42 -224 l -7 -224 l -7 -154 q 17 -148 14 -154 q 21 -122 21 -142 l 21 792 l 99 792 l 99 -125 z "},"Ǿ":{"ha":264,"x_min":21,"x_max":243,"o":"m 243 103 q 214 22 243 51 q 133 -8 185 -8 q 60 14 90 -8 l 56 -8 l 21 0 l 31 53 q 21 103 21 72 l 21 869 q 51 951 21 921 q 133 981 82 981 q 203 960 176 981 l 207 981 l 243 972 l 233 921 q 243 869 243 900 l 243 103 m 160 858 q 132 903 160 903 q 104 858 104 903 l 104 439 l 160 732 l 160 858 m 104 114 q 132 69 104 69 q 160 114 160 69 l 160 536 l 104 246 l 104 114 m 103 1014 l 121 1176 l 204 1176 l 164 1014 l 103 1014 z "},"Ș":{"ha":257,"x_min":18,"x_max":240,"o":"m 240 103 q 210 22 240 51 q 128 -8 179 -8 q 47 22 76 -8 q 18 103 18 51 l 18 342 l 101 342 l 101 114 q 129 69 101 69 q 157 114 157 69 l 157 299 q 137 403 157 360 q 92 490 117 447 q 41 589 64 536 q 18 718 18 642 l 18 869 q 49 951 18 921 q 131 981 79 981 q 211 951 182 981 q 240 869 240 921 l 240 674 l 157 674 l 157 858 q 129 903 157 903 q 101 858 101 903 l 101 718 q 122 613 101 657 q 167 525 142 568 q 217 426 194 479 q 240 299 240 374 l 240 103 m 90 -28 l 167 -28 l 167 -139 l 151 -214 l 117 -214 l 132 -139 l 90 -139 l 90 -28 z "},"Ț":{"ha":242,"x_min":10,"x_max":232,"o":"m 232 894 l 163 894 l 163 0 l 79 0 l 79 894 l 10 894 l 10 972 l 232 972 l 232 894 m 83 -28 l 160 -28 l 160 -139 l 144 -214 l 110 -214 l 125 -139 l 83 -139 l 83 -28 z "},"˝":{"ha":286,"x_min":21,"x_max":233,"o":"m 21 796 l 39 958 l 122 958 l 82 796 l 21 796 m 132 796 l 150 958 l 233 958 l 193 796 l 132 796 z "},"Ẃ":{"ha":403,"x_min":0,"x_max":403,"o":"m 342 0 l 231 0 l 207 665 l 203 819 l 200 819 l 196 665 l 172 0 l 61 0 l 0 972 l 88 972 l 110 363 l 115 124 l 118 124 l 125 363 l 146 972 l 257 972 l 279 363 l 285 124 l 288 124 l 294 364 l 315 972 l 403 972 l 342 0 m 171 1014 l 189 1176 l 272 1176 l 232 1014 l 171 1014 z "},"Ẁ":{"ha":403,"x_min":0,"x_max":403,"o":"m 342 0 l 231 0 l 207 665 l 203 819 l 200 819 l 196 665 l 172 0 l 61 0 l 0 972 l 88 972 l 110 363 l 115 124 l 118 124 l 125 363 l 146 972 l 257 972 l 279 363 l 285 124 l 288 124 l 294 364 l 315 972 l 403 972 l 342 0 m 131 1176 l 214 1176 l 232 1014 l 171 1014 l 131 1176 z "},"Ẅ":{"ha":403,"x_min":0,"x_max":403,"o":"m 342 0 l 231 0 l 207 665 l 203 819 l 200 819 l 196 665 l 172 0 l 61 0 l 0 972 l 88 972 l 110 363 l 115 124 l 118 124 l 125 363 l 146 972 l 257 972 l 279 363 l 285 124 l 288 124 l 294 364 l 315 972 l 403 972 l 342 0 m 129 1138 l 192 1138 l 192 1026 l 129 1026 l 129 1138 m 211 1138 l 274 1138 l 274 1026 l 211 1026 l 211 1138 z "},"Ỳ":{"ha":242,"x_min":0,"x_max":242,"o":"m 163 319 l 163 0 l 79 0 l 79 319 l 0 972 l 86 972 l 114 638 l 119 499 l 122 499 l 128 638 l 156 972 l 242 972 l 163 319 m 50 1176 l 133 1176 l 151 1014 l 90 1014 l 50 1176 z "},"Ǽ":{"ha":314,"x_min":0,"x_max":304,"o":"m 290 894 l 242 894 l 242 538 l 297 538 l 297 460 l 242 460 l 242 78 l 304 78 l 304 0 l 158 0 l 158 256 l 104 256 l 78 0 l 0 0 l 101 972 l 290 972 l 290 894 m 158 333 l 158 849 l 156 849 l 139 610 l 111 333 l 158 333 m 165 1014 l 183 1176 l 267 1176 l 226 1014 l 165 1014 z "},"ǽ":{"ha":386,"x_min":21,"x_max":365,"o":"m 160 58 q 135 9 153 26 q 92 -8 117 -8 q 40 22 60 -8 q 21 103 21 51 l 21 278 q 26 340 21 315 q 44 383 31 365 q 85 417 58 401 q 154 450 111 432 l 154 683 q 126 728 154 728 q 99 683 99 728 l 99 508 l 21 508 l 21 689 q 49 770 21 740 q 121 800 76 800 q 192 765 165 800 l 194 765 q 265 800 221 800 q 338 770 310 800 q 365 689 365 740 l 365 383 l 232 383 l 232 108 q 260 64 232 64 q 288 108 288 64 l 288 310 l 365 310 l 365 103 q 338 22 365 51 q 261 -8 310 -8 q 199 9 225 -8 q 163 58 172 26 l 160 58 m 288 683 q 260 728 288 728 q 232 683 232 728 l 232 456 l 288 456 l 288 683 m 154 378 q 125 360 136 368 q 108 340 114 351 q 100 313 101 329 q 99 272 99 297 l 99 108 q 126 64 99 64 q 154 108 154 64 l 154 378 m 143 796 l 161 958 l 244 958 l 204 796 l 143 796 z "},"ǿ":{"ha":253,"x_min":21,"x_max":232,"o":"m 232 103 q 204 22 232 51 q 128 -8 176 -8 q 60 13 88 -8 l 56 -8 l 21 0 l 32 49 q 21 103 21 74 l 21 689 q 50 770 21 740 q 128 800 79 800 q 192 781 165 800 l 196 800 l 232 792 l 221 743 q 232 689 232 718 l 232 103 m 154 683 q 126 728 154 728 q 99 683 99 728 l 99 356 l 154 610 l 154 683 m 99 108 q 126 64 99 64 q 154 108 154 64 l 154 439 l 99 188 l 99 108 m 97 833 l 115 996 l 199 996 l 158 833 l 97 833 z "},"ș":{"ha":244,"x_min":17,"x_max":228,"o":"m 228 103 q 199 22 228 51 q 121 -8 169 -8 q 44 22 72 -8 q 17 103 17 51 l 17 279 l 94 279 l 94 108 q 122 64 94 64 q 150 108 150 64 l 150 261 q 131 333 150 301 q 89 397 113 365 q 40 474 63 433 q 17 569 17 514 l 17 689 q 46 770 17 740 q 124 800 75 800 q 200 770 172 800 q 228 689 228 740 l 228 550 l 150 550 l 150 683 q 122 728 150 728 q 94 683 94 728 l 94 569 q 113 497 94 529 q 156 433 132 465 q 205 356 182 397 q 228 261 228 314 l 228 103 m 83 -28 l 160 -28 l 160 -139 l 144 -214 l 110 -214 l 125 -139 l 83 -139 l 83 -28 z "},"ț":{"ha":146,"x_min":7,"x_max":139,"o":"m 104 944 l 104 792 l 139 792 l 139 719 l 104 719 l 104 101 q 108 76 104 82 q 139 69 113 69 l 139 0 l 104 0 q 44 15 63 0 q 26 85 26 29 l 26 719 l 7 719 l 7 792 l 26 792 l 26 944 l 104 944 m 60 -28 l 136 -28 l 136 -139 l 121 -214 l 86 -214 l 101 -139 l 60 -139 l 60 -28 z "},"ẃ":{"ha":397,"x_min":4,"x_max":393,"o":"m 393 792 l 328 0 l 228 0 l 203 517 l 200 674 l 197 674 l 193 515 l 169 0 l 69 0 l 4 792 l 86 792 l 111 296 l 118 101 l 121 101 l 128 296 l 153 792 l 244 792 l 269 296 l 276 101 l 279 101 l 286 296 l 311 792 l 393 792 m 168 833 l 186 996 l 269 996 l 229 833 l 168 833 z "},"ẁ":{"ha":397,"x_min":4,"x_max":393,"o":"m 393 792 l 328 0 l 228 0 l 203 517 l 200 674 l 197 674 l 193 515 l 169 0 l 69 0 l 4 792 l 86 792 l 111 296 l 118 101 l 121 101 l 128 296 l 153 792 l 244 792 l 269 296 l 276 101 l 279 101 l 286 296 l 311 792 l 393 792 m 128 996 l 211 996 l 229 833 l 168 833 l 128 996 z "},"ẅ":{"ha":397,"x_min":4,"x_max":393,"o":"m 393 792 l 328 0 l 228 0 l 203 517 l 200 674 l 197 674 l 193 515 l 169 0 l 69 0 l 4 792 l 86 792 l 111 296 l 118 101 l 121 101 l 128 296 l 153 792 l 244 792 l 269 296 l 276 101 l 279 101 l 286 296 l 311 792 l 393 792 m 126 957 l 189 957 l 189 846 l 126 846 l 126 957 m 208 957 l 271 957 l 271 846 l 208 846 l 208 957 z "},"ỳ":{"ha":243,"x_min":4,"x_max":239,"o":"m 118 365 l 125 171 l 128 171 l 133 365 l 167 792 l 239 792 l 142 -222 l 68 -222 l 90 0 l 4 792 l 86 792 l 118 365 m 51 996 l 135 996 l 153 833 l 92 833 l 51 996 z "}}}
